<svg width="100" height="46" viewBox="0 0 100 46" fill="none" xmlns="http://www.w3.org/2000/svg">
<path d="M0.922001 23.0168C0.922001 35.0953 10.7135 44.8868 22.792 44.8868C34.8705 44.8868 44.662 35.0953 44.662 23.0168C44.662 10.9383 34.8705 1.14673 22.792 1.14673C10.7135 1.14673 0.922001 10.9383 0.922001 23.0168Z" fill="black" stroke="white"/>
<path d="M45.662 24.8953C45.662 33.0392 52.2639 39.6411 60.4077 39.6411C68.5516 39.6411 75.1534 33.0392 75.1534 24.8953C75.1534 16.7514 68.5516 10.1495 60.4077 10.1495C52.2639 10.1495 45.662 16.7514 45.662 24.8953Z" fill="black" stroke="white"/>
<path d="M76.1535 24.8953C76.1535 31.1175 81.1975 36.1616 87.4197 36.1616C93.6418 36.1616 98.6859 31.1175 98.6859 24.8953C98.6859 18.6732 93.6418 13.6291 87.4197 13.6291C81.1975 13.6291 76.1535 18.6732 76.1535 24.8953Z" fill="black" stroke="white"/>
</svg>
