<svg width="192" height="70" viewBox="0 0 192 70" fill="none" xmlns="http://www.w3.org/2000/svg">
<mask id="path-1-outside-1_2_167" maskUnits="userSpaceOnUse" x="0.733383" y="-0.704163" width="192" height="70" fill="black">
<rect fill="white" x="0.733383" y="-0.704163" width="192" height="70"/>
<path d="M20.4774 46.5358C16.6694 46.5358 13.3574 45.8478 10.5414 44.4718C7.72538 43.0638 5.56538 41.0798 4.06138 38.5198C2.55738 35.9598 1.80538 32.9838 1.80538 29.5918C1.80538 24.8878 2.68538 20.7118 4.44538 17.0638C6.23738 13.4158 8.65338 10.5998 11.6934 8.61584C14.7334 6.59984 18.1094 5.59184 21.8214 5.59184C25.2774 5.59184 27.9014 6.48783 29.6934 8.27983C31.4854 10.0398 32.3814 12.3758 32.3814 15.2878C32.3814 17.2398 32.0294 18.8078 31.3254 19.9918C30.6534 21.1758 29.6774 21.7678 28.3974 21.7678C27.5014 21.7678 26.7974 21.5598 26.2854 21.1438C25.7734 20.7278 25.5174 20.1198 25.5174 19.3198C25.5174 19.0318 25.5814 18.5038 25.7094 17.7358C25.9014 16.7758 25.9974 16.0078 25.9974 15.4318C25.9974 12.5198 24.4454 11.0638 21.3414 11.0638C19.2294 11.0638 17.2134 11.7518 15.2934 13.1278C13.3734 14.5038 11.8214 16.5358 10.6374 19.2238C9.45338 21.8798 8.86138 25.0478 8.86138 28.7278C8.86138 32.5678 9.93338 35.5438 12.0774 37.6558C14.2214 39.7358 17.3894 40.7758 21.5814 40.7758C23.6614 40.7758 25.7574 40.5198 27.8694 40.0078C30.0134 39.4638 32.3814 38.6478 34.9734 37.5598C35.4534 37.3678 35.8534 37.2718 36.1734 37.2718C36.6854 37.2718 37.0694 37.4638 37.3254 37.8478C37.5814 38.2318 37.7094 38.7278 37.7094 39.3358C37.7094 41.2878 36.6534 42.7278 34.5414 43.6558C32.2694 44.6478 29.9014 45.3838 27.4374 45.8638C25.0054 46.3118 22.6854 46.5358 20.4774 46.5358ZM39.8476 46.5358C37.8636 46.5358 36.2796 45.8158 35.0956 44.3758C33.9116 42.9358 33.3196 41.0478 33.3196 38.7118C33.3196 36.1518 33.9116 33.7358 35.0956 31.4638C36.2796 29.1598 37.8476 27.3198 39.7996 25.9438C41.7836 24.5358 43.8796 23.8318 46.0876 23.8318C46.7916 23.8318 47.2556 23.9758 47.4796 24.2638C47.7356 24.5198 47.9436 24.9998 48.1036 25.7038C48.7756 25.5758 49.4796 25.5118 50.2156 25.5118C51.7836 25.5118 52.5676 26.0718 52.5676 27.1918C52.5676 27.8638 52.3276 29.4638 51.8476 31.9918C51.1116 35.6718 50.7436 38.2318 50.7436 39.6718C50.7436 40.1518 50.8556 40.5358 51.0796 40.8238C51.3356 41.1118 51.6556 41.2558 52.0396 41.2558C52.6476 41.2558 53.3836 40.8718 54.2476 40.1038C55.1116 39.3038 56.2796 38.0238 57.7516 36.2638C58.1356 35.8158 58.5676 35.5918 59.0476 35.5918C59.4636 35.5918 59.7836 35.7838 60.0076 36.1678C60.2636 36.5518 60.3916 37.0798 60.3916 37.7518C60.3916 39.0318 60.0876 40.0238 59.4796 40.7278C58.1676 42.3598 56.7756 43.7358 55.3036 44.8558C53.8316 45.9758 52.4076 46.5358 51.0316 46.5358C49.9756 46.5358 48.9996 46.1838 48.1036 45.4798C47.2396 44.7438 46.5836 43.7518 46.1356 42.5038C44.4716 45.1918 42.3756 46.5358 39.8476 46.5358ZM41.5756 41.6878C42.2796 41.6878 42.9516 41.2718 43.5916 40.4398C44.2316 39.6078 44.6956 38.5038 44.9836 37.1278L46.7596 28.2958C45.4156 28.3278 44.1676 28.8398 43.0156 29.8318C41.8956 30.7918 40.9996 32.0718 40.3276 33.6718C39.6556 35.2718 39.3196 36.9678 39.3196 38.7598C39.3196 39.7518 39.5116 40.4878 39.8956 40.9678C40.3116 41.4478 40.8716 41.6878 41.5756 41.6878ZM77.8985 35.5918C78.3145 35.5918 78.6345 35.7838 78.8585 36.1678C79.1145 36.5518 79.2425 37.0798 79.2425 37.7518C79.2425 39.0318 78.9385 40.0238 78.3305 40.7278C76.9545 42.4238 75.4505 43.8158 73.8185 44.9038C72.1865 45.9918 70.3145 46.5358 68.2025 46.5358C61.6745 46.5358 58.4105 41.9438 58.4105 32.7598C58.4105 31.3518 58.4585 29.9278 58.5545 28.4878H56.6825C55.7225 28.4878 55.0665 28.3118 54.7145 27.9598C54.3945 27.6078 54.2345 27.0478 54.2345 26.2798C54.2345 24.4878 54.9545 23.5918 56.3945 23.5918H59.1305C59.6745 20.0718 60.5065 16.8558 61.6265 13.9438C62.7465 11.0318 64.0905 8.71183 65.6585 6.98383C67.2585 5.25584 68.9705 4.39184 70.7945 4.39184C72.1385 4.39184 73.1945 4.98384 73.9625 6.16784C74.7305 7.35184 75.1145 8.83984 75.1145 10.6318C75.1145 15.5918 73.0345 19.9118 68.8745 23.5918H74.2505C74.7625 23.5918 75.1305 23.7038 75.3545 23.9278C75.5785 24.1518 75.6905 24.5678 75.6905 25.1758C75.6905 27.3838 73.8825 28.4878 70.2665 28.4878H64.4105C64.3465 30.0878 64.3145 31.3358 64.3145 32.2318C64.3145 35.5598 64.6985 37.8958 65.4665 39.2398C66.2665 40.5838 67.5145 41.2558 69.2105 41.2558C70.5865 41.2558 71.8025 40.8398 72.8585 40.0078C73.9145 39.1758 75.1625 37.9278 76.6025 36.2638C76.9865 35.8158 77.4185 35.5918 77.8985 35.5918ZM69.4985 8.99984C69.0185 8.99984 68.4745 9.60784 67.8665 10.8238C67.2905 12.0078 66.7305 13.6718 66.1865 15.8158C65.6745 17.9278 65.2425 20.2798 64.8905 22.8718C66.7785 21.2398 68.1865 19.4158 69.1145 17.3998C70.0745 15.3518 70.5545 13.4958 70.5545 11.8318C70.5545 9.94384 70.2025 8.99984 69.4985 8.99984ZM84.5023 46.5358C81.3663 46.5358 78.9183 45.6558 77.1583 43.8958C75.4303 42.1038 74.5663 39.7518 74.5663 36.8398C74.5663 34.2478 75.0783 31.9758 76.1023 30.0238C77.1263 28.0718 78.4543 26.5678 80.0863 25.5118C81.7183 24.4558 83.4303 23.9278 85.2223 23.9278C86.9823 23.9278 88.3423 24.4558 89.3023 25.5118C90.2943 26.5358 90.7903 27.8638 90.7903 29.4958C90.7903 30.8398 90.4863 31.9758 89.8783 32.9038C89.3023 33.8318 88.5343 34.2958 87.5743 34.2958C86.9663 34.2958 86.4703 34.1518 86.0863 33.8638C85.7343 33.5758 85.5583 33.1758 85.5583 32.6638C85.5583 32.4398 85.5903 32.1838 85.6543 31.8958C85.7183 31.6078 85.7663 31.3998 85.7983 31.2718C85.9583 30.7918 86.0383 30.3438 86.0383 29.9278C86.0383 29.5118 85.9263 29.1918 85.7023 28.9678C85.5103 28.7438 85.2223 28.6318 84.8383 28.6318C84.1023 28.6318 83.4143 28.9678 82.7743 29.6398C82.1343 30.2798 81.6223 31.1598 81.2383 32.2798C80.8543 33.3998 80.6623 34.6318 80.6623 35.9758C80.6623 39.6878 82.2783 41.5438 85.5103 41.5438C86.8223 41.5438 88.2303 41.1118 89.7343 40.2478C91.2703 39.3518 92.7743 38.0238 94.2463 36.2638C94.6303 35.8158 95.0623 35.5918 95.5423 35.5918C95.9583 35.5918 96.2783 35.7838 96.5023 36.1678C96.7583 36.5518 96.8863 37.0798 96.8863 37.7518C96.8863 38.9678 96.5823 39.9598 95.9743 40.7278C94.4703 42.5838 92.6623 44.0238 90.5503 45.0478C88.4703 46.0398 86.4543 46.5358 84.5023 46.5358ZM109.998 23.9278C111.022 23.9278 111.79 24.1998 112.302 24.7438C112.846 25.2558 113.118 26.0238 113.118 27.0478C113.118 27.8798 112.942 29.4478 112.59 31.7518C112.27 33.7038 112.014 35.5598 111.822 37.3198C111.63 39.0478 111.534 40.9838 111.534 43.1278C111.534 44.3438 111.278 45.2238 110.766 45.7678C110.286 46.2798 109.486 46.5358 108.366 46.5358C107.31 46.5358 106.542 46.2638 106.062 45.7198C105.582 45.1758 105.342 44.3598 105.342 43.2718C105.342 41.9918 105.566 39.8798 106.014 36.9358C106.398 34.3758 106.59 32.7438 106.59 32.0398C106.59 31.5278 106.414 31.2718 106.062 31.2718C105.646 31.2718 105.054 31.8158 104.286 32.9038C103.518 33.9598 102.75 35.3678 101.982 37.1278C101.214 38.8878 100.59 40.7438 100.11 42.6958C99.7581 44.1998 99.3421 45.2238 98.8621 45.7678C98.4141 46.2798 97.6941 46.5358 96.7021 46.5358C95.7101 46.5358 94.9741 46.1838 94.4941 45.4798C94.0461 44.7438 93.7421 43.6238 93.5821 42.1198C93.4221 40.6158 93.3421 38.4078 93.3421 35.4958C93.3421 30.5678 93.8381 25.4318 94.8301 20.0878C95.8541 14.7438 97.3421 10.2638 99.2941 6.64784C101.278 2.99984 103.646 1.17583 106.398 1.17583C107.87 1.17583 109.054 1.81583 109.95 3.09584C110.878 4.34383 111.342 5.97583 111.342 7.99184C111.342 11.2238 110.398 14.5838 108.51 18.0718C106.622 21.5278 103.55 25.5758 99.2941 30.2158C99.1981 31.8798 99.1501 33.5918 99.1501 35.3518C100.206 32.6318 101.374 30.4238 102.654 28.7278C103.966 26.9998 105.246 25.7678 106.494 25.0318C107.774 24.2958 108.942 23.9278 109.998 23.9278ZM105.39 5.92784C104.814 5.92784 104.174 6.75984 103.47 8.42384C102.766 10.0558 102.078 12.2798 101.406 15.0958C100.766 17.8798 100.238 20.9198 99.8221 24.2158C101.806 21.8798 103.438 19.3358 104.718 16.5838C106.03 13.8318 106.686 11.3358 106.686 9.09584C106.686 8.07184 106.574 7.28784 106.35 6.74383C106.126 6.19984 105.806 5.92784 105.39 5.92784ZM142.873 46.5358C140.185 46.5358 138.153 45.7998 136.777 44.3278C135.401 42.8238 134.713 40.8238 134.713 38.3278C134.713 36.9198 134.921 35.2078 135.337 33.1918L138.313 19.4638C138.377 19.2078 138.521 18.5038 138.745 17.3518C139.001 16.1998 139.129 14.9518 139.129 13.6078C139.129 12.8398 138.969 12.2638 138.649 11.8798C138.361 11.4958 137.961 11.3038 137.449 11.3038C136.489 11.3038 135.369 11.7678 134.089 12.6958C132.809 13.5918 131.465 14.9838 130.057 16.8718C129.609 17.4798 129.113 17.7838 128.569 17.7838C128.121 17.7838 127.721 17.5758 127.369 17.1598C127.049 16.7118 126.889 16.2158 126.889 15.6718C126.889 14.6798 127.337 13.5598 128.233 12.3118C131.497 7.83184 135.321 5.59184 139.705 5.59184C141.657 5.59184 143.177 6.18384 144.265 7.36784C145.385 8.55184 145.945 10.2958 145.945 12.5998C145.945 14.2318 145.833 15.7358 145.609 17.1118C145.385 18.4878 145.001 20.3598 144.457 22.7278L142.489 31.5118C142.425 31.7998 142.313 32.3118 142.153 33.0478C141.993 33.7838 141.865 34.4878 141.769 35.1598C141.673 35.7998 141.625 36.4398 141.625 37.0798C141.625 38.1038 141.913 38.9198 142.489 39.5278C143.065 40.1358 143.881 40.4398 144.937 40.4398C146.857 40.4398 148.793 39.4158 150.745 37.3678C152.729 35.3198 154.553 32.0238 156.217 27.4798C157.913 22.9038 159.225 17.0638 160.153 9.95984C160.377 8.32784 160.697 7.19184 161.113 6.55183C161.561 5.91183 162.409 5.59184 163.657 5.59184C164.777 5.59184 165.609 5.92784 166.153 6.59984C166.697 7.27184 166.969 8.35983 166.969 9.86383C166.969 10.7278 166.857 11.8638 166.633 13.2718C166.441 14.6798 166.137 16.6478 165.721 19.1758C164.857 24.0718 164.169 28.5678 163.657 32.6638C163.401 34.5198 163.273 35.8958 163.273 36.7918C163.273 38.1038 163.561 39.1118 164.137 39.8158C164.745 40.4878 165.545 40.8238 166.537 40.8238C167.593 40.8238 168.617 40.4718 169.609 39.7678C170.633 39.0638 171.833 37.8958 173.209 36.2638C173.593 35.8158 174.025 35.5918 174.505 35.5918C174.921 35.5918 175.241 35.7838 175.465 36.1678C175.721 36.5518 175.849 37.0798 175.849 37.7518C175.849 38.9998 175.545 39.9918 174.937 40.7278C173.273 42.7438 171.625 44.2158 169.993 45.1438C168.361 46.0718 166.649 46.5358 164.857 46.5358C162.201 46.5358 160.169 45.8638 158.761 44.5198C157.353 43.1438 156.649 41.3678 156.649 39.1918C156.649 37.9758 156.905 35.6078 157.417 32.0878C155.817 36.7918 153.785 40.3758 151.321 42.8398C148.889 45.3038 146.073 46.5358 142.873 46.5358ZM190.952 31.6558C190.952 34.1838 190.36 36.5838 189.176 38.8558C188.024 41.0958 186.472 42.9198 184.52 44.3278C182.6 45.7358 180.536 46.4718 178.328 46.5358C177.912 52.7118 176.968 57.8638 175.496 61.9918C174.024 66.1518 171.864 68.2318 169.016 68.2318C167.288 68.2318 166.008 67.6078 165.176 66.3598C164.344 65.1118 163.928 63.3838 163.928 61.1758C163.928 58.0398 164.648 54.3758 166.088 50.1838C167.528 46.0238 169.752 41.4318 172.76 36.4078C172.76 31.7358 172.728 28.4878 172.664 26.6638C172.632 25.7358 173 24.9998 173.768 24.4558C174.536 23.9118 175.496 23.6398 176.648 23.6398C177.32 23.6398 177.8 23.7838 178.088 24.0718C178.408 24.3278 178.584 24.8558 178.616 25.6558C178.616 26.4558 178.632 27.0478 178.664 27.4318C179.688 26.1518 180.696 25.2398 181.688 24.6958C182.68 24.1198 183.736 23.8318 184.856 23.8318C186.648 23.8318 188.104 24.5518 189.224 25.9918C190.376 27.4318 190.952 29.3198 190.952 31.6558ZM178.568 41.9278C179.72 41.6718 180.776 41.0478 181.736 40.0558C182.728 39.0318 183.512 37.7838 184.088 36.3118C184.664 34.8078 184.952 33.2398 184.952 31.6078C184.952 30.6478 184.76 29.9278 184.376 29.4478C183.992 28.9358 183.48 28.6798 182.84 28.6798C181.688 28.6798 180.296 29.8958 178.664 32.3278C178.632 33.7358 178.616 35.7998 178.616 38.5198C178.616 39.9918 178.6 41.1278 178.568 41.9278ZM169.4 63.5278C170.264 63.5278 170.984 61.6398 171.56 57.8638C172.136 54.1198 172.504 49.4478 172.664 43.8478C171.288 47.0478 170.2 50.1038 169.4 53.0158C168.6 55.9278 168.2 58.3758 168.2 60.3598C168.2 61.3838 168.328 62.1678 168.584 62.7118C168.808 63.2558 169.08 63.5278 169.4 63.5278Z"/>
</mask>
<path d="M20.4774 46.5358C16.6694 46.5358 13.3574 45.8478 10.5414 44.4718C7.72538 43.0638 5.56538 41.0798 4.06138 38.5198C2.55738 35.9598 1.80538 32.9838 1.80538 29.5918C1.80538 24.8878 2.68538 20.7118 4.44538 17.0638C6.23738 13.4158 8.65338 10.5998 11.6934 8.61584C14.7334 6.59984 18.1094 5.59184 21.8214 5.59184C25.2774 5.59184 27.9014 6.48783 29.6934 8.27983C31.4854 10.0398 32.3814 12.3758 32.3814 15.2878C32.3814 17.2398 32.0294 18.8078 31.3254 19.9918C30.6534 21.1758 29.6774 21.7678 28.3974 21.7678C27.5014 21.7678 26.7974 21.5598 26.2854 21.1438C25.7734 20.7278 25.5174 20.1198 25.5174 19.3198C25.5174 19.0318 25.5814 18.5038 25.7094 17.7358C25.9014 16.7758 25.9974 16.0078 25.9974 15.4318C25.9974 12.5198 24.4454 11.0638 21.3414 11.0638C19.2294 11.0638 17.2134 11.7518 15.2934 13.1278C13.3734 14.5038 11.8214 16.5358 10.6374 19.2238C9.45338 21.8798 8.86138 25.0478 8.86138 28.7278C8.86138 32.5678 9.93338 35.5438 12.0774 37.6558C14.2214 39.7358 17.3894 40.7758 21.5814 40.7758C23.6614 40.7758 25.7574 40.5198 27.8694 40.0078C30.0134 39.4638 32.3814 38.6478 34.9734 37.5598C35.4534 37.3678 35.8534 37.2718 36.1734 37.2718C36.6854 37.2718 37.0694 37.4638 37.3254 37.8478C37.5814 38.2318 37.7094 38.7278 37.7094 39.3358C37.7094 41.2878 36.6534 42.7278 34.5414 43.6558C32.2694 44.6478 29.9014 45.3838 27.4374 45.8638C25.0054 46.3118 22.6854 46.5358 20.4774 46.5358ZM39.8476 46.5358C37.8636 46.5358 36.2796 45.8158 35.0956 44.3758C33.9116 42.9358 33.3196 41.0478 33.3196 38.7118C33.3196 36.1518 33.9116 33.7358 35.0956 31.4638C36.2796 29.1598 37.8476 27.3198 39.7996 25.9438C41.7836 24.5358 43.8796 23.8318 46.0876 23.8318C46.7916 23.8318 47.2556 23.9758 47.4796 24.2638C47.7356 24.5198 47.9436 24.9998 48.1036 25.7038C48.7756 25.5758 49.4796 25.5118 50.2156 25.5118C51.7836 25.5118 52.5676 26.0718 52.5676 27.1918C52.5676 27.8638 52.3276 29.4638 51.8476 31.9918C51.1116 35.6718 50.7436 38.2318 50.7436 39.6718C50.7436 40.1518 50.8556 40.5358 51.0796 40.8238C51.3356 41.1118 51.6556 41.2558 52.0396 41.2558C52.6476 41.2558 53.3836 40.8718 54.2476 40.1038C55.1116 39.3038 56.2796 38.0238 57.7516 36.2638C58.1356 35.8158 58.5676 35.5918 59.0476 35.5918C59.4636 35.5918 59.7836 35.7838 60.0076 36.1678C60.2636 36.5518 60.3916 37.0798 60.3916 37.7518C60.3916 39.0318 60.0876 40.0238 59.4796 40.7278C58.1676 42.3598 56.7756 43.7358 55.3036 44.8558C53.8316 45.9758 52.4076 46.5358 51.0316 46.5358C49.9756 46.5358 48.9996 46.1838 48.1036 45.4798C47.2396 44.7438 46.5836 43.7518 46.1356 42.5038C44.4716 45.1918 42.3756 46.5358 39.8476 46.5358ZM41.5756 41.6878C42.2796 41.6878 42.9516 41.2718 43.5916 40.4398C44.2316 39.6078 44.6956 38.5038 44.9836 37.1278L46.7596 28.2958C45.4156 28.3278 44.1676 28.8398 43.0156 29.8318C41.8956 30.7918 40.9996 32.0718 40.3276 33.6718C39.6556 35.2718 39.3196 36.9678 39.3196 38.7598C39.3196 39.7518 39.5116 40.4878 39.8956 40.9678C40.3116 41.4478 40.8716 41.6878 41.5756 41.6878ZM77.8985 35.5918C78.3145 35.5918 78.6345 35.7838 78.8585 36.1678C79.1145 36.5518 79.2425 37.0798 79.2425 37.7518C79.2425 39.0318 78.9385 40.0238 78.3305 40.7278C76.9545 42.4238 75.4505 43.8158 73.8185 44.9038C72.1865 45.9918 70.3145 46.5358 68.2025 46.5358C61.6745 46.5358 58.4105 41.9438 58.4105 32.7598C58.4105 31.3518 58.4585 29.9278 58.5545 28.4878H56.6825C55.7225 28.4878 55.0665 28.3118 54.7145 27.9598C54.3945 27.6078 54.2345 27.0478 54.2345 26.2798C54.2345 24.4878 54.9545 23.5918 56.3945 23.5918H59.1305C59.6745 20.0718 60.5065 16.8558 61.6265 13.9438C62.7465 11.0318 64.0905 8.71183 65.6585 6.98383C67.2585 5.25584 68.9705 4.39184 70.7945 4.39184C72.1385 4.39184 73.1945 4.98384 73.9625 6.16784C74.7305 7.35184 75.1145 8.83984 75.1145 10.6318C75.1145 15.5918 73.0345 19.9118 68.8745 23.5918H74.2505C74.7625 23.5918 75.1305 23.7038 75.3545 23.9278C75.5785 24.1518 75.6905 24.5678 75.6905 25.1758C75.6905 27.3838 73.8825 28.4878 70.2665 28.4878H64.4105C64.3465 30.0878 64.3145 31.3358 64.3145 32.2318C64.3145 35.5598 64.6985 37.8958 65.4665 39.2398C66.2665 40.5838 67.5145 41.2558 69.2105 41.2558C70.5865 41.2558 71.8025 40.8398 72.8585 40.0078C73.9145 39.1758 75.1625 37.9278 76.6025 36.2638C76.9865 35.8158 77.4185 35.5918 77.8985 35.5918ZM69.4985 8.99984C69.0185 8.99984 68.4745 9.60784 67.8665 10.8238C67.2905 12.0078 66.7305 13.6718 66.1865 15.8158C65.6745 17.9278 65.2425 20.2798 64.8905 22.8718C66.7785 21.2398 68.1865 19.4158 69.1145 17.3998C70.0745 15.3518 70.5545 13.4958 70.5545 11.8318C70.5545 9.94384 70.2025 8.99984 69.4985 8.99984ZM84.5023 46.5358C81.3663 46.5358 78.9183 45.6558 77.1583 43.8958C75.4303 42.1038 74.5663 39.7518 74.5663 36.8398C74.5663 34.2478 75.0783 31.9758 76.1023 30.0238C77.1263 28.0718 78.4543 26.5678 80.0863 25.5118C81.7183 24.4558 83.4303 23.9278 85.2223 23.9278C86.9823 23.9278 88.3423 24.4558 89.3023 25.5118C90.2943 26.5358 90.7903 27.8638 90.7903 29.4958C90.7903 30.8398 90.4863 31.9758 89.8783 32.9038C89.3023 33.8318 88.5343 34.2958 87.5743 34.2958C86.9663 34.2958 86.4703 34.1518 86.0863 33.8638C85.7343 33.5758 85.5583 33.1758 85.5583 32.6638C85.5583 32.4398 85.5903 32.1838 85.6543 31.8958C85.7183 31.6078 85.7663 31.3998 85.7983 31.2718C85.9583 30.7918 86.0383 30.3438 86.0383 29.9278C86.0383 29.5118 85.9263 29.1918 85.7023 28.9678C85.5103 28.7438 85.2223 28.6318 84.8383 28.6318C84.1023 28.6318 83.4143 28.9678 82.7743 29.6398C82.1343 30.2798 81.6223 31.1598 81.2383 32.2798C80.8543 33.3998 80.6623 34.6318 80.6623 35.9758C80.6623 39.6878 82.2783 41.5438 85.5103 41.5438C86.8223 41.5438 88.2303 41.1118 89.7343 40.2478C91.2703 39.3518 92.7743 38.0238 94.2463 36.2638C94.6303 35.8158 95.0623 35.5918 95.5423 35.5918C95.9583 35.5918 96.2783 35.7838 96.5023 36.1678C96.7583 36.5518 96.8863 37.0798 96.8863 37.7518C96.8863 38.9678 96.5823 39.9598 95.9743 40.7278C94.4703 42.5838 92.6623 44.0238 90.5503 45.0478C88.4703 46.0398 86.4543 46.5358 84.5023 46.5358ZM109.998 23.9278C111.022 23.9278 111.79 24.1998 112.302 24.7438C112.846 25.2558 113.118 26.0238 113.118 27.0478C113.118 27.8798 112.942 29.4478 112.59 31.7518C112.27 33.7038 112.014 35.5598 111.822 37.3198C111.63 39.0478 111.534 40.9838 111.534 43.1278C111.534 44.3438 111.278 45.2238 110.766 45.7678C110.286 46.2798 109.486 46.5358 108.366 46.5358C107.31 46.5358 106.542 46.2638 106.062 45.7198C105.582 45.1758 105.342 44.3598 105.342 43.2718C105.342 41.9918 105.566 39.8798 106.014 36.9358C106.398 34.3758 106.59 32.7438 106.59 32.0398C106.59 31.5278 106.414 31.2718 106.062 31.2718C105.646 31.2718 105.054 31.8158 104.286 32.9038C103.518 33.9598 102.75 35.3678 101.982 37.1278C101.214 38.8878 100.59 40.7438 100.11 42.6958C99.7581 44.1998 99.3421 45.2238 98.8621 45.7678C98.4141 46.2798 97.6941 46.5358 96.7021 46.5358C95.7101 46.5358 94.9741 46.1838 94.4941 45.4798C94.0461 44.7438 93.7421 43.6238 93.5821 42.1198C93.4221 40.6158 93.3421 38.4078 93.3421 35.4958C93.3421 30.5678 93.8381 25.4318 94.8301 20.0878C95.8541 14.7438 97.3421 10.2638 99.2941 6.64784C101.278 2.99984 103.646 1.17583 106.398 1.17583C107.87 1.17583 109.054 1.81583 109.95 3.09584C110.878 4.34383 111.342 5.97583 111.342 7.99184C111.342 11.2238 110.398 14.5838 108.51 18.0718C106.622 21.5278 103.55 25.5758 99.2941 30.2158C99.1981 31.8798 99.1501 33.5918 99.1501 35.3518C100.206 32.6318 101.374 30.4238 102.654 28.7278C103.966 26.9998 105.246 25.7678 106.494 25.0318C107.774 24.2958 108.942 23.9278 109.998 23.9278ZM105.39 5.92784C104.814 5.92784 104.174 6.75984 103.47 8.42384C102.766 10.0558 102.078 12.2798 101.406 15.0958C100.766 17.8798 100.238 20.9198 99.8221 24.2158C101.806 21.8798 103.438 19.3358 104.718 16.5838C106.03 13.8318 106.686 11.3358 106.686 9.09584C106.686 8.07184 106.574 7.28784 106.35 6.74383C106.126 6.19984 105.806 5.92784 105.39 5.92784ZM142.873 46.5358C140.185 46.5358 138.153 45.7998 136.777 44.3278C135.401 42.8238 134.713 40.8238 134.713 38.3278C134.713 36.9198 134.921 35.2078 135.337 33.1918L138.313 19.4638C138.377 19.2078 138.521 18.5038 138.745 17.3518C139.001 16.1998 139.129 14.9518 139.129 13.6078C139.129 12.8398 138.969 12.2638 138.649 11.8798C138.361 11.4958 137.961 11.3038 137.449 11.3038C136.489 11.3038 135.369 11.7678 134.089 12.6958C132.809 13.5918 131.465 14.9838 130.057 16.8718C129.609 17.4798 129.113 17.7838 128.569 17.7838C128.121 17.7838 127.721 17.5758 127.369 17.1598C127.049 16.7118 126.889 16.2158 126.889 15.6718C126.889 14.6798 127.337 13.5598 128.233 12.3118C131.497 7.83184 135.321 5.59184 139.705 5.59184C141.657 5.59184 143.177 6.18384 144.265 7.36784C145.385 8.55184 145.945 10.2958 145.945 12.5998C145.945 14.2318 145.833 15.7358 145.609 17.1118C145.385 18.4878 145.001 20.3598 144.457 22.7278L142.489 31.5118C142.425 31.7998 142.313 32.3118 142.153 33.0478C141.993 33.7838 141.865 34.4878 141.769 35.1598C141.673 35.7998 141.625 36.4398 141.625 37.0798C141.625 38.1038 141.913 38.9198 142.489 39.5278C143.065 40.1358 143.881 40.4398 144.937 40.4398C146.857 40.4398 148.793 39.4158 150.745 37.3678C152.729 35.3198 154.553 32.0238 156.217 27.4798C157.913 22.9038 159.225 17.0638 160.153 9.95984C160.377 8.32784 160.697 7.19184 161.113 6.55183C161.561 5.91183 162.409 5.59184 163.657 5.59184C164.777 5.59184 165.609 5.92784 166.153 6.59984C166.697 7.27184 166.969 8.35983 166.969 9.86383C166.969 10.7278 166.857 11.8638 166.633 13.2718C166.441 14.6798 166.137 16.6478 165.721 19.1758C164.857 24.0718 164.169 28.5678 163.657 32.6638C163.401 34.5198 163.273 35.8958 163.273 36.7918C163.273 38.1038 163.561 39.1118 164.137 39.8158C164.745 40.4878 165.545 40.8238 166.537 40.8238C167.593 40.8238 168.617 40.4718 169.609 39.7678C170.633 39.0638 171.833 37.8958 173.209 36.2638C173.593 35.8158 174.025 35.5918 174.505 35.5918C174.921 35.5918 175.241 35.7838 175.465 36.1678C175.721 36.5518 175.849 37.0798 175.849 37.7518C175.849 38.9998 175.545 39.9918 174.937 40.7278C173.273 42.7438 171.625 44.2158 169.993 45.1438C168.361 46.0718 166.649 46.5358 164.857 46.5358C162.201 46.5358 160.169 45.8638 158.761 44.5198C157.353 43.1438 156.649 41.3678 156.649 39.1918C156.649 37.9758 156.905 35.6078 157.417 32.0878C155.817 36.7918 153.785 40.3758 151.321 42.8398C148.889 45.3038 146.073 46.5358 142.873 46.5358ZM190.952 31.6558C190.952 34.1838 190.36 36.5838 189.176 38.8558C188.024 41.0958 186.472 42.9198 184.52 44.3278C182.6 45.7358 180.536 46.4718 178.328 46.5358C177.912 52.7118 176.968 57.8638 175.496 61.9918C174.024 66.1518 171.864 68.2318 169.016 68.2318C167.288 68.2318 166.008 67.6078 165.176 66.3598C164.344 65.1118 163.928 63.3838 163.928 61.1758C163.928 58.0398 164.648 54.3758 166.088 50.1838C167.528 46.0238 169.752 41.4318 172.76 36.4078C172.76 31.7358 172.728 28.4878 172.664 26.6638C172.632 25.7358 173 24.9998 173.768 24.4558C174.536 23.9118 175.496 23.6398 176.648 23.6398C177.32 23.6398 177.8 23.7838 178.088 24.0718C178.408 24.3278 178.584 24.8558 178.616 25.6558C178.616 26.4558 178.632 27.0478 178.664 27.4318C179.688 26.1518 180.696 25.2398 181.688 24.6958C182.68 24.1198 183.736 23.8318 184.856 23.8318C186.648 23.8318 188.104 24.5518 189.224 25.9918C190.376 27.4318 190.952 29.3198 190.952 31.6558ZM178.568 41.9278C179.72 41.6718 180.776 41.0478 181.736 40.0558C182.728 39.0318 183.512 37.7838 184.088 36.3118C184.664 34.8078 184.952 33.2398 184.952 31.6078C184.952 30.6478 184.76 29.9278 184.376 29.4478C183.992 28.9358 183.48 28.6798 182.84 28.6798C181.688 28.6798 180.296 29.8958 178.664 32.3278C178.632 33.7358 178.616 35.7998 178.616 38.5198C178.616 39.9918 178.6 41.1278 178.568 41.9278ZM169.4 63.5278C170.264 63.5278 170.984 61.6398 171.56 57.8638C172.136 54.1198 172.504 49.4478 172.664 43.8478C171.288 47.0478 170.2 50.1038 169.4 53.0158C168.6 55.9278 168.2 58.3758 168.2 60.3598C168.2 61.3838 168.328 62.1678 168.584 62.7118C168.808 63.2558 169.08 63.5278 169.4 63.5278Z" fill="white"/>
<path d="M10.5414 44.4718L10.0942 45.3663L10.1024 45.3703L10.5414 44.4718ZM4.06138 38.5198L3.19917 39.0264L4.06138 38.5198ZM4.44538 17.0638L3.54781 16.6229L3.54473 16.6293L4.44538 17.0638ZM11.6934 8.61584L12.2399 9.45329L12.2461 9.44923L11.6934 8.61584ZM29.6934 8.27983L28.9862 8.98697L28.9927 8.99328L29.6934 8.27983ZM31.3254 19.9918L30.4658 19.4808L30.4607 19.4894L30.4557 19.4982L31.3254 19.9918ZM26.2854 21.1438L26.916 20.3677L26.916 20.3677L26.2854 21.1438ZM25.7094 17.7358L24.7288 17.5397L24.7256 17.5555L24.723 17.5714L25.7094 17.7358ZM15.2934 13.1278L14.7109 12.315L14.7109 12.315L15.2934 13.1278ZM10.6374 19.2238L11.5507 19.631L11.5525 19.6269L10.6374 19.2238ZM12.0774 37.6558L11.3756 38.3683L11.3811 38.3736L12.0774 37.6558ZM27.8694 40.0078L28.105 40.9797L28.1153 40.9771L27.8694 40.0078ZM34.9734 37.5598L34.602 36.6314L34.5941 36.6345L34.5863 36.6378L34.9734 37.5598ZM37.3254 37.8478L36.4933 38.4025L36.4933 38.4025L37.3254 37.8478ZM34.5414 43.6558L34.9415 44.5723L34.9437 44.5714L34.5414 43.6558ZM27.4374 45.8638L27.6186 46.8473L27.6286 46.8454L27.4374 45.8638ZM20.4774 45.5358C16.7893 45.5358 13.6334 44.8697 10.9804 43.5734L10.1024 45.3703C13.0813 46.8259 16.5494 47.5358 20.4774 47.5358V45.5358ZM10.9886 43.5774C8.33456 42.2504 6.32364 40.3963 4.92359 38.0133L3.19917 39.0264C4.80713 41.7633 7.11621 43.8773 10.0942 45.3663L10.9886 43.5774ZM4.92359 38.0133C3.52205 35.6277 2.80538 32.8315 2.80538 29.5918H0.805383C0.805383 33.1361 1.59272 36.292 3.19917 39.0264L4.92359 38.0133ZM2.80538 29.5918C2.80538 25.0141 3.66119 20.9906 5.34604 17.4984L3.54473 16.6293C1.70958 20.4331 0.805383 24.7616 0.805383 29.5918H2.80538ZM5.34294 17.5047C7.06541 13.9983 9.36787 11.3277 12.2399 9.45327L11.1468 7.7784C7.9389 9.87201 5.40936 12.8334 3.54783 16.6229L5.34294 17.5047ZM12.2461 9.44923C15.1192 7.5439 18.3023 6.59184 21.8214 6.59184V4.59184C17.9165 4.59184 14.3476 5.65577 11.1407 7.78244L12.2461 9.44923ZM21.8214 6.59184C25.111 6.59184 27.4417 7.4424 28.9863 8.98694L30.4005 7.57273C28.361 5.53327 25.4438 4.59184 21.8214 4.59184V6.59184ZM28.9927 8.99328C30.5625 10.5351 31.3814 12.5978 31.3814 15.2878H33.3814C33.3814 12.1539 32.4083 9.54461 30.3941 7.56639L28.9927 8.99328ZM31.3814 15.2878C31.3814 17.1311 31.0473 18.5028 30.4658 19.4808L32.1849 20.5029C33.0114 19.1128 33.3814 17.3486 33.3814 15.2878H31.3814ZM30.4557 19.4982C29.9475 20.3937 29.2902 20.7678 28.3974 20.7678V22.7678C30.0645 22.7678 31.3593 21.958 32.1951 20.4854L30.4557 19.4982ZM28.3974 20.7678C27.6491 20.7678 27.1951 20.5945 26.916 20.3677L25.6548 21.9199C26.3997 22.5252 27.3537 22.7678 28.3974 22.7678V20.7678ZM26.916 20.3677C26.6875 20.1821 26.5174 19.8894 26.5174 19.3198H24.5174C24.5174 20.3502 24.8592 21.2735 25.6548 21.9199L26.916 20.3677ZM26.5174 19.3198C26.5174 19.1261 26.5665 18.6756 26.6958 17.9002L24.723 17.5714C24.5962 18.332 24.5174 18.9376 24.5174 19.3198H26.5174ZM26.69 17.932C26.8873 16.9455 26.9974 16.1036 26.9974 15.4318H24.9974C24.9974 15.9121 24.9155 16.6062 24.7288 17.5397L26.69 17.932ZM26.9974 15.4318C26.9974 13.8048 26.5608 12.4052 25.5176 11.4265C24.4864 10.4591 23.0322 10.0638 21.3414 10.0638V12.0638C22.7546 12.0638 23.6284 12.3965 24.1492 12.8851C24.658 13.3625 24.9974 14.1469 24.9974 15.4318H26.9974ZM21.3414 10.0638C18.996 10.0638 16.7797 10.8324 14.7109 12.315L15.8759 13.9407C17.6471 12.6713 19.4628 12.0638 21.3414 12.0638V10.0638ZM14.7109 12.315C12.6138 13.8179 10.961 16.0084 9.72223 18.8207L11.5525 19.6269C12.6818 17.0633 14.133 15.1897 15.8759 13.9407L14.7109 12.315ZM9.72403 18.8167C8.46988 21.63 7.86138 24.9435 7.86138 28.7278H9.86138C9.86138 25.1522 10.4369 22.1296 11.5507 19.631L9.72403 18.8167ZM7.86138 28.7278C7.86138 32.7579 8.99178 36.02 11.3756 38.3682L12.7792 36.9434C10.875 35.0677 9.86138 32.3777 9.86138 28.7278H7.86138ZM11.3811 38.3736C13.7759 40.6969 17.2352 41.7758 21.5814 41.7758V39.7758C17.5435 39.7758 14.6669 38.7748 12.7737 36.9381L11.3811 38.3736ZM21.5814 41.7758C23.7442 41.7758 25.9193 41.5096 28.105 40.9797L27.6338 39.036C25.5955 39.5301 23.5785 39.7758 21.5814 39.7758V41.7758ZM28.1153 40.9771C30.3183 40.4182 32.7343 39.5842 35.3604 38.4819L34.5863 36.6378C32.0285 37.7114 29.7085 38.5095 27.6234 39.0386L28.1153 40.9771ZM35.3448 38.4883C35.7704 38.318 36.0349 38.2718 36.1734 38.2718V36.2718C35.6719 36.2718 35.1363 36.4176 34.602 36.6314L35.3448 38.4883ZM36.1734 38.2718C36.3941 38.2718 36.4455 38.3307 36.4933 38.4025L38.1574 37.2931C37.6933 36.5969 36.9767 36.2718 36.1734 36.2718V38.2718ZM36.4933 38.4025C36.61 38.5775 36.7094 38.8636 36.7094 39.3358H38.7094C38.7094 38.5921 38.5528 37.8861 38.1574 37.2931L36.4933 38.4025ZM36.7094 39.3358C36.7094 40.12 36.5014 40.7561 36.111 41.2885C35.713 41.8312 35.0801 42.3268 34.1391 42.7403L34.9437 44.5714C36.1146 44.0568 37.0658 43.3685 37.7238 42.4712C38.3894 41.5636 38.7094 40.5036 38.7094 39.3358H36.7094ZM34.1412 42.7394C31.9371 43.7017 29.6393 44.4161 27.2462 44.8823L27.6286 46.8454C30.1635 46.3516 32.6016 45.5939 34.9415 44.5723L34.1412 42.7394ZM27.2562 44.8804C24.877 45.3187 22.6179 45.5358 20.4774 45.5358V47.5358C22.7529 47.5358 25.1338 47.305 27.6185 46.8473L27.2562 44.8804ZM35.0956 44.3758L35.8681 43.7407L35.8681 43.7407L35.0956 44.3758ZM35.0956 31.4638L35.9825 31.926L35.9851 31.9209L35.0956 31.4638ZM39.7996 25.9438L40.3758 26.7612L40.3784 26.7593L39.7996 25.9438ZM47.4796 24.2638L46.6903 24.8778L46.7285 24.9269L46.7725 24.9709L47.4796 24.2638ZM48.1036 25.7038L47.1285 25.9255L47.3424 26.8668L48.2907 26.6862L48.1036 25.7038ZM51.8476 31.9918L52.8283 32.188L52.8301 32.1784L51.8476 31.9918ZM51.0796 40.8238L50.2903 41.4378L50.3104 41.4637L50.3322 41.4882L51.0796 40.8238ZM54.2476 40.1038L54.912 40.8512L54.9196 40.8445L54.927 40.8376L54.2476 40.1038ZM57.7516 36.2638L56.9923 35.613L56.9846 35.6223L57.7516 36.2638ZM60.0076 36.1678L59.1439 36.6717L59.159 36.6976L59.1756 36.7225L60.0076 36.1678ZM59.4796 40.7278L58.7228 40.0742L58.7113 40.0876L58.7003 40.1013L59.4796 40.7278ZM55.3036 44.8558L55.9092 45.6517L55.9092 45.6517L55.3036 44.8558ZM48.1036 45.4798L47.4552 46.2411L47.4702 46.2539L47.4858 46.2662L48.1036 45.4798ZM46.1356 42.5038L47.0768 42.166L46.3765 40.2149L45.2854 41.9775L46.1356 42.5038ZM43.5916 40.4398L42.799 39.8301L42.799 39.8301L43.5916 40.4398ZM44.9836 37.1278L45.9625 37.3327L45.964 37.325L44.9836 37.1278ZM46.7596 28.2958L47.74 28.493L47.9867 27.2663L46.7358 27.2961L46.7596 28.2958ZM43.0156 29.8318L43.6664 30.5911L43.6682 30.5896L43.0156 29.8318ZM40.3276 33.6718L41.2496 34.0591L41.2496 34.0591L40.3276 33.6718ZM39.8956 40.9678L39.1148 41.5925L39.1271 41.6079L39.1399 41.6228L39.8956 40.9678ZM39.8476 45.5358C38.1407 45.5358 36.8486 44.9332 35.8681 43.7407L34.3232 45.0109C35.7107 46.6984 37.5866 47.5358 39.8476 47.5358V45.5358ZM35.8681 43.7407C34.8653 42.5212 34.3196 40.8763 34.3196 38.7118H32.3196C32.3196 41.2194 32.9579 43.3505 34.3232 45.0109L35.8681 43.7407ZM34.3196 38.7118C34.3196 36.3129 34.8727 34.0554 35.9824 31.926L34.2088 31.0017C32.9505 33.4163 32.3196 35.9908 32.3196 38.7118H34.3196ZM35.9851 31.9209C37.1017 29.7481 38.5667 28.0364 40.3758 26.7612L39.2235 25.1265C37.1285 26.6033 35.4576 28.5716 34.2062 31.0068L35.9851 31.9209ZM40.3784 26.7593C42.2113 25.4586 44.1081 24.8318 46.0876 24.8318V22.8318C43.6512 22.8318 41.356 23.6131 39.2209 25.1283L40.3784 26.7593ZM46.0876 24.8318C46.38 24.8318 46.5637 24.8628 46.6672 24.8949C46.7677 24.9261 46.7394 24.941 46.6903 24.8778L48.269 23.6499C47.7378 22.967 46.8367 22.8318 46.0876 22.8318V24.8318ZM46.7725 24.9709C46.8171 25.0155 46.9761 25.2549 47.1285 25.9255L49.0788 25.4822C48.9112 24.7448 48.6542 24.0241 48.1867 23.5567L46.7725 24.9709ZM48.2907 26.6862C48.8966 26.5708 49.5377 26.5118 50.2156 26.5118V24.5118C49.4216 24.5118 48.6547 24.5809 47.9165 24.7215L48.2907 26.6862ZM50.2156 26.5118C50.9108 26.5118 51.2526 26.6414 51.3984 26.7456C51.4822 26.8054 51.5676 26.8947 51.5676 27.1918H53.5676C53.5676 26.369 53.261 25.6182 52.5609 25.1181C51.9227 24.6623 51.0885 24.5118 50.2156 24.5118V26.5118ZM51.5676 27.1918C51.5676 27.7491 51.3513 29.2452 50.8652 31.8053L52.8301 32.1784C53.304 29.6825 53.5676 27.9786 53.5676 27.1918H51.5676ZM50.8671 31.7957C50.1323 35.4695 49.7436 38.1201 49.7436 39.6718H51.7436C51.7436 38.3436 52.091 35.8742 52.8282 32.188L50.8671 31.7957ZM49.7436 39.6718C49.7436 40.3039 49.8921 40.9258 50.2903 41.4378L51.869 40.2099C51.8192 40.1459 51.7436 39.9998 51.7436 39.6718H49.7436ZM50.3322 41.4882C50.7772 41.9888 51.3689 42.2558 52.0396 42.2558V40.2558C51.9424 40.2558 51.894 40.2348 51.827 40.1595L50.3322 41.4882ZM52.0396 42.2558C53.034 42.2558 54.0094 41.6536 54.912 40.8512L53.5833 39.3564C52.7579 40.0901 52.2613 40.2558 52.0396 40.2558V42.2558ZM54.927 40.8376C55.8391 39.9931 57.0399 38.6736 58.5187 36.9054L56.9846 35.6223C55.5194 37.3741 54.3842 38.6145 53.5682 39.3701L54.927 40.8376ZM58.5109 36.9146C58.7524 36.6329 58.9253 36.5918 59.0476 36.5918V34.5918C58.2099 34.5918 57.5189 34.9988 56.9924 35.613L58.5109 36.9146ZM59.0476 36.5918C59.0744 36.5918 59.0869 36.5949 59.0892 36.5955C59.0908 36.5959 59.0884 36.5953 59.0851 36.5933C59.0755 36.5876 59.1005 36.5973 59.1439 36.6717L60.8714 35.664C60.4832 34.9985 59.8481 34.5918 59.0476 34.5918V36.5918ZM59.1756 36.7225C59.2827 36.8832 59.3916 37.1918 59.3916 37.7518H61.3916C61.3916 36.9679 61.2446 36.2204 60.8397 35.6131L59.1756 36.7225ZM59.3916 37.7518C59.3916 38.8821 59.1236 39.6101 58.7228 40.0742L60.2365 41.3815C61.0517 40.4375 61.3916 39.1816 61.3916 37.7518H59.3916ZM58.7003 40.1013C57.4326 41.6782 56.0977 42.9951 54.6981 44.06L55.9092 45.6517C57.4536 44.4765 58.9027 43.0415 60.259 41.3544L58.7003 40.1013ZM54.6981 44.06C53.3408 45.0928 52.1244 45.5358 51.0316 45.5358V47.5358C52.6908 47.5358 54.3225 46.8589 55.9092 45.6517L54.6981 44.06ZM51.0316 45.5358C50.2179 45.5358 49.4561 45.2708 48.7215 44.6935L47.4858 46.2662C48.5431 47.0969 49.7334 47.5358 51.0316 47.5358V45.5358ZM48.7521 44.7186C48.0418 44.1135 47.4759 43.2776 47.0768 42.166L45.1944 42.8417C45.6914 44.2261 46.4375 45.3741 47.4552 46.2411L48.7521 44.7186ZM45.2854 41.9775C43.7512 44.4558 41.9401 45.5358 39.8476 45.5358V47.5358C42.8112 47.5358 45.1921 45.9279 46.9859 43.0302L45.2854 41.9775ZM41.5756 42.6878C42.7196 42.6878 43.6511 42.0026 44.3843 41.0495L42.799 39.8301C42.2522 40.541 41.8397 40.6878 41.5756 40.6878V42.6878ZM44.3843 41.0495C45.1416 40.065 45.6536 38.8084 45.9624 37.3327L44.0048 36.923C43.7377 38.1993 43.3217 39.1507 42.799 39.8301L44.3843 41.0495ZM45.964 37.325L47.74 28.493L45.7793 28.0987L44.0033 36.9307L45.964 37.325ZM46.7358 27.2961C45.1305 27.3343 43.6661 27.952 42.3631 29.0741L43.6682 30.5896C44.6692 29.7276 45.7008 29.3213 46.7834 29.2956L46.7358 27.2961ZM42.3648 29.0726C41.1076 30.1502 40.1273 31.5664 39.4057 33.2846L41.2496 34.0591C41.872 32.5773 42.6837 31.4335 43.6664 30.5911L42.3648 29.0726ZM39.4057 33.2846C38.6805 35.0112 38.3196 36.8393 38.3196 38.7598H40.3196C40.3196 37.0964 40.6308 35.5324 41.2496 34.0591L39.4057 33.2846ZM38.3196 38.7598C38.3196 39.8493 38.5249 40.8553 39.1148 41.5925L40.6765 40.3431C40.4983 40.1204 40.3196 39.6544 40.3196 38.7598H38.3196ZM39.1399 41.6228C39.7678 42.3472 40.6169 42.6878 41.5756 42.6878V40.6878C41.1264 40.6878 40.8554 40.5484 40.6513 40.3129L39.1399 41.6228ZM78.8585 36.1678L77.9947 36.6717L78.0098 36.6976L78.0265 36.7225L78.8585 36.1678ZM78.3305 40.7278L77.5737 40.0742L77.5636 40.0859L77.5539 40.0978L78.3305 40.7278ZM73.8185 44.9038L73.2638 44.0718L73.2638 44.0718L73.8185 44.9038ZM58.5545 28.4878L59.5523 28.5544L59.6234 27.4878H58.5545V28.4878ZM54.7145 27.9598L53.9746 28.6325L53.9906 28.6501L54.0074 28.6669L54.7145 27.9598ZM59.1305 23.5918V24.5918H59.9878L60.1188 23.7446L59.1305 23.5918ZM61.6265 13.9438L60.6932 13.5849L60.6932 13.5849L61.6265 13.9438ZM65.6585 6.98383L64.9247 6.30439L64.9179 6.31184L65.6585 6.98383ZM73.9625 6.16784L74.8015 5.62365L74.8015 5.62364L73.9625 6.16784ZM68.8745 23.5918L68.2119 22.8428L66.2348 24.5918H68.8745V23.5918ZM64.4105 28.4878V27.4878H63.4497L63.4113 28.4479L64.4105 28.4878ZM65.4665 39.2398L64.5983 39.736L64.6027 39.7437L64.6072 39.7513L65.4665 39.2398ZM72.8585 40.0078L73.4774 40.7933L73.4774 40.7933L72.8585 40.0078ZM76.6025 36.2638L77.3587 36.9182L77.3618 36.9146L76.6025 36.2638ZM67.8665 10.8238L66.972 10.3766L66.9673 10.3864L67.8665 10.8238ZM66.1865 15.8158L65.2172 15.5699L65.2147 15.5802L66.1865 15.8158ZM64.8905 22.8718L63.8996 22.7373L63.5437 25.3578L65.5445 23.6284L64.8905 22.8718ZM69.1145 17.3998L68.209 16.9754L68.2061 16.9817L69.1145 17.3998ZM77.8985 36.5918C77.9252 36.5918 77.9378 36.5949 77.9401 36.5955C77.9417 36.5959 77.9392 36.5953 77.936 36.5933C77.9264 36.5876 77.9513 36.5973 77.9947 36.6717L79.7223 35.664C79.3341 34.9985 78.699 34.5918 77.8985 34.5918V36.5918ZM78.0265 36.7225C78.1336 36.8832 78.2425 37.1918 78.2425 37.7518H80.2425C80.2425 36.9679 80.0954 36.2204 79.6906 35.6131L78.0265 36.7225ZM78.2425 37.7518C78.2425 38.8821 77.9745 39.6101 77.5737 40.0742L79.0873 41.3815C79.9025 40.4375 80.2425 39.1816 80.2425 37.7518H78.2425ZM77.5539 40.0978C76.2342 41.7244 74.8032 43.0455 73.2638 44.0718L74.3732 45.7359C76.0978 44.5862 77.6748 43.1232 79.1071 41.3579L77.5539 40.0978ZM73.2638 44.0718C71.8088 45.0418 70.133 45.5358 68.2025 45.5358V47.5358C70.4961 47.5358 72.5642 46.9419 74.3732 45.7359L73.2638 44.0718ZM68.2025 45.5358C65.2033 45.5358 63.0863 44.4999 61.6736 42.5125C60.2163 40.4623 59.4105 37.2637 59.4105 32.7598H57.4105C57.4105 37.44 58.2367 41.1294 60.0434 43.6712C61.8948 46.2758 64.6737 47.5358 68.2025 47.5358V45.5358ZM59.4105 32.7598C59.4105 31.3746 59.4577 29.9728 59.5523 28.5544L57.5567 28.4213C57.4593 29.8829 57.4105 31.3291 57.4105 32.7598H59.4105ZM58.5545 27.4878H56.6825V29.4878H58.5545V27.4878ZM56.6825 27.4878C55.7701 27.4878 55.4742 27.3053 55.4216 27.2527L54.0074 28.6669C54.6588 29.3184 55.6749 29.4878 56.6825 29.4878V27.4878ZM55.4544 27.2872C55.3786 27.2037 55.2345 26.9436 55.2345 26.2798H53.2345C53.2345 27.1521 53.4104 28.012 53.9746 28.6325L55.4544 27.2872ZM55.2345 26.2798C55.2345 25.4915 55.3972 25.0854 55.554 24.8902C55.6773 24.7369 55.8937 24.5918 56.3945 24.5918V22.5918C55.4553 22.5918 54.5918 22.8948 53.995 23.6374C53.4318 24.3383 53.2345 25.2762 53.2345 26.2798H55.2345ZM56.3945 24.5918H59.1305V22.5918H56.3945V24.5918ZM60.1188 23.7446C60.6534 20.2854 61.4688 17.1396 62.5599 14.3028L60.6932 13.5849C59.5442 16.572 58.6956 19.8583 58.1422 23.4391L60.1188 23.7446ZM62.5599 14.3028C63.6496 11.4696 64.9369 9.26717 66.3991 7.65582L64.9179 6.31184C63.2441 8.1565 61.8435 10.5941 60.6932 13.5849L62.5599 14.3028ZM66.3923 7.66324C67.8613 6.07671 69.3246 5.39184 70.7945 5.39184V3.39184C68.6164 3.39184 66.6557 4.43497 64.9247 6.30443L66.3923 7.66324ZM70.7945 5.39184C71.7798 5.39184 72.5288 5.79519 73.1235 6.71203L74.8015 5.62364C73.8602 4.17249 72.4972 3.39184 70.7945 3.39184V5.39184ZM73.1235 6.71203C73.7614 7.69542 74.1145 8.9812 74.1145 10.6318H76.1145C76.1145 8.69847 75.6996 7.00825 74.8015 5.62365L73.1235 6.71203ZM74.1145 10.6318C74.1145 15.2692 72.186 19.3273 68.2119 22.8428L69.5371 24.3408C73.883 20.4964 76.1145 15.9145 76.1145 10.6318H74.1145ZM68.8745 24.5918H74.2505V22.5918H68.8745V24.5918ZM74.2505 24.5918C74.4384 24.5918 74.555 24.6129 74.6193 24.6325C74.6797 24.6509 74.6738 24.6614 74.6474 24.6349L76.0616 23.2207C75.5626 22.7217 74.8711 22.5918 74.2505 22.5918V24.5918ZM74.6474 24.6349C74.5988 24.5864 74.6147 24.5705 74.6409 24.6678C74.6669 24.7642 74.6905 24.9267 74.6905 25.1758H76.6905C76.6905 24.5185 76.5844 23.7436 76.0616 23.2207L74.6474 24.6349ZM74.6905 25.1758C74.6905 25.9493 74.4049 26.4451 73.8134 26.8064C73.1416 27.2166 72.0053 27.4878 70.2665 27.4878V29.4878C72.1437 29.4878 73.7194 29.2071 74.8557 28.5133C76.0721 27.7705 76.6905 26.6104 76.6905 25.1758H74.6905ZM70.2665 27.4878H64.4105V29.4878H70.2665V27.4878ZM63.4113 28.4479C63.3471 30.0526 63.3145 31.316 63.3145 32.2318H65.3145C65.3145 31.3556 65.3459 30.1231 65.4097 28.5278L63.4113 28.4479ZM63.3145 32.2318C63.3145 35.5765 63.6899 38.1463 64.5983 39.736L66.3348 38.7437C65.7071 37.6453 65.3145 35.5432 65.3145 32.2318H63.3145ZM64.6072 39.7513C65.6052 41.4279 67.198 42.2558 69.2105 42.2558V40.2558C67.831 40.2558 66.9278 39.7397 66.3258 38.7284L64.6072 39.7513ZM69.2105 42.2558C70.8053 42.2558 72.2406 41.7678 73.4774 40.7933L72.2396 39.2223C71.3644 39.9119 70.3677 40.2558 69.2105 40.2558V42.2558ZM73.4774 40.7933C74.6045 39.9053 75.8998 38.604 77.3587 36.9182L75.8463 35.6095C74.4252 37.2516 73.2245 38.4464 72.2396 39.2223L73.4774 40.7933ZM77.3618 36.9146C77.6032 36.6329 77.7762 36.5918 77.8985 36.5918V34.5918C77.0608 34.5918 76.3698 34.9988 75.8433 35.613L77.3618 36.9146ZM69.4985 7.99984C68.8276 7.99984 68.3204 8.41449 67.9853 8.78904C67.6277 9.18863 67.2932 9.7344 66.9721 10.3766L68.7609 11.271C69.0478 10.6973 69.2893 10.331 69.4758 10.1226C69.6846 9.88918 69.6894 9.99984 69.4985 9.99984V7.99984ZM66.9673 10.3864C66.3481 11.659 65.7683 13.3979 65.2172 15.5699L67.1558 16.0618C67.6927 13.9458 68.2329 12.3567 68.7657 11.2613L66.9673 10.3864ZM65.2147 15.5802C64.6932 17.7315 64.2553 20.1179 63.8996 22.7373L65.8814 23.0064C66.2297 20.4418 66.6559 18.1242 67.1584 16.0514L65.2147 15.5802ZM65.5445 23.6284C67.527 21.9147 69.0282 19.9789 70.0229 17.818L68.2061 16.9817C67.3448 18.8528 66.03 20.565 64.2366 22.1153L65.5445 23.6284ZM70.02 17.8243C71.0211 15.6886 71.5545 13.6853 71.5545 11.8318H69.5545C69.5545 13.3064 69.1279 15.0151 68.2091 16.9754L70.02 17.8243ZM71.5545 11.8318C71.5545 10.854 71.4672 10.0012 71.2275 9.35845C71.1053 9.03065 70.9202 8.69342 70.627 8.4313C70.3129 8.15051 69.922 7.99984 69.4985 7.99984V9.99984C69.427 9.99984 69.3441 9.96716 69.294 9.92237C69.2648 9.89625 69.2998 9.91303 69.3535 10.0572C69.4659 10.3585 69.5545 10.9216 69.5545 11.8318H71.5545ZM77.1583 43.8958L76.4384 44.59L76.4447 44.5965L76.4512 44.6029L77.1583 43.8958ZM76.1023 30.0238L76.9878 30.4884L76.9878 30.4884L76.1023 30.0238ZM80.0863 25.5118L79.543 24.6723L79.543 24.6723L80.0863 25.5118ZM89.3023 25.5118L88.5623 26.1845L88.573 26.1962L88.584 26.2076L89.3023 25.5118ZM89.8783 32.9038L89.0418 32.3558L89.0351 32.3661L89.0286 32.3765L89.8783 32.9038ZM86.0863 33.8638L85.453 34.6378L85.4694 34.6512L85.4863 34.6638L86.0863 33.8638ZM85.7983 31.2718L84.8496 30.9556L84.8374 30.992L84.8281 31.0293L85.7983 31.2718ZM85.7023 28.9678L84.943 29.6186L84.968 29.6478L84.9952 29.6749L85.7023 28.9678ZM82.7743 29.6398L83.4814 30.3469L83.49 30.3383L83.4984 30.3295L82.7743 29.6398ZM81.2383 32.2798L80.2923 31.9555L80.2923 31.9555L81.2383 32.2798ZM89.7343 40.2478L90.2324 41.115L90.2381 41.1116L89.7343 40.2478ZM94.2463 36.2638L93.4869 35.613L93.4792 35.6223L94.2463 36.2638ZM96.5023 36.1678L95.6385 36.6717L95.6536 36.6976L95.6702 36.7225L96.5023 36.1678ZM95.9743 40.7278L96.7512 41.3575L96.7583 41.3485L95.9743 40.7278ZM90.5503 45.0478L90.9807 45.9505L90.9865 45.9477L90.5503 45.0478ZM84.5023 45.5358C81.5588 45.5358 79.3921 44.7154 77.8654 43.1887L76.4512 44.6029C78.4445 46.5963 81.1737 47.5358 84.5023 47.5358V45.5358ZM77.8781 43.2017C76.3601 41.6275 75.5663 39.5401 75.5663 36.8398H73.5663C73.5663 39.9636 74.5004 42.5802 76.4384 44.59L77.8781 43.2017ZM75.5663 36.8398C75.5663 34.3812 76.0512 32.2738 76.9878 30.4884L75.2167 29.5593C74.1053 31.6778 73.5663 34.1145 73.5663 36.8398H75.5663ZM76.9878 30.4884C77.9428 28.668 79.1604 27.302 80.6295 26.3514L79.543 24.6723C77.7481 25.8337 76.3098 27.4757 75.2167 29.5593L76.9878 30.4884ZM80.6295 26.3514C82.114 25.3909 83.6394 24.9278 85.2223 24.9278V22.9278C83.2211 22.9278 81.3225 23.5208 79.543 24.6723L80.6295 26.3514ZM85.2223 24.9278C86.7713 24.9278 87.8347 25.3842 88.5623 26.1845L90.0422 24.8392C88.8498 23.5275 87.1932 22.9278 85.2223 22.9278V24.9278ZM88.584 26.2076C89.3689 27.0178 89.7903 28.0829 89.7903 29.4958H91.7903C91.7903 27.6447 91.2196 26.0538 90.0205 24.816L88.584 26.2076ZM89.7903 29.4958C89.7903 30.6867 89.5224 31.6223 89.0418 32.3558L90.7147 33.4519C91.4501 32.3294 91.7903 30.993 91.7903 29.4958H89.7903ZM89.0286 32.3765C88.6053 33.0585 88.1355 33.2958 87.5743 33.2958V35.2958C88.933 35.2958 89.9992 34.6052 90.7279 33.4312L89.0286 32.3765ZM87.5743 33.2958C87.1243 33.2958 86.8557 33.1909 86.6863 33.0638L85.4863 34.6638C86.0848 35.1128 86.8082 35.2958 87.5743 35.2958V33.2958ZM86.7195 33.0899C86.6307 33.0172 86.5583 32.9185 86.5583 32.6638H84.5583C84.5583 33.4332 84.8378 34.1345 85.453 34.6378L86.7195 33.0899ZM86.5583 32.6638C86.5583 32.5316 86.5776 32.3506 86.6304 32.1128L84.6781 31.6789C84.6029 32.0171 84.5583 32.3481 84.5583 32.6638H86.5583ZM86.6304 32.1128C86.6943 31.8255 86.7398 31.6286 86.7684 31.5144L84.8281 31.0293C84.7927 31.1711 84.7422 31.3901 84.6781 31.6789L86.6304 32.1128ZM86.7469 31.5881C86.9338 31.0274 87.0383 30.4717 87.0383 29.9278H85.0383C85.0383 30.216 84.9827 30.5563 84.8496 30.9556L86.7469 31.5881ZM87.0383 29.9278C87.0383 29.3329 86.8742 28.7255 86.4094 28.2607L84.9952 29.6749C84.9959 29.6757 84.9968 29.6766 84.9985 29.6793C85.0003 29.6822 85.0048 29.6903 85.0104 29.7062C85.0219 29.739 85.0383 29.8077 85.0383 29.9278H87.0383ZM86.4615 28.317C86.0258 27.8088 85.4201 27.6318 84.8383 27.6318V29.6318C84.9353 29.6318 84.9756 29.6462 84.9798 29.6478C84.9813 29.6484 84.9759 29.6464 84.9668 29.6401C84.9576 29.6336 84.9492 29.6259 84.943 29.6186L86.4615 28.317ZM84.8383 27.6318C83.7611 27.6318 82.8266 28.1349 82.0501 28.9502L83.4984 30.3295C84.0019 29.8008 84.4435 29.6318 84.8383 29.6318V27.6318ZM82.0672 28.9327C81.2915 29.7084 80.7111 30.7341 80.2923 31.9555L82.1842 32.6042C82.5334 31.5856 82.977 30.8513 83.4814 30.3469L82.0672 28.9327ZM80.2923 31.9555C79.868 33.193 79.6623 34.5362 79.6623 35.9758H81.6623C81.6623 34.7275 81.8405 33.6067 82.1842 32.6042L80.2923 31.9555ZM79.6623 35.9758C79.6623 37.9546 80.09 39.6254 81.1201 40.8085C82.1732 42.018 83.7013 42.5438 85.5103 42.5438V40.5438C84.0872 40.5438 83.1913 40.1417 82.6284 39.4952C82.0425 38.8222 81.6623 37.7091 81.6623 35.9758H79.6623ZM85.5103 42.5438C87.0445 42.5438 88.6241 42.0388 90.2324 41.1149L89.2361 39.3807C87.8364 40.1848 86.6 40.5438 85.5103 40.5438V42.5438ZM90.2381 41.1116C91.8983 40.1432 93.4876 38.7297 95.0133 36.9054L93.4792 35.6223C92.0609 37.318 90.6422 38.5605 89.2304 39.3841L90.2381 41.1116ZM95.0055 36.9146C95.247 36.6329 95.42 36.5918 95.5423 36.5918V34.5918C94.7046 34.5918 94.0135 34.9988 93.487 35.613L95.0055 36.9146ZM95.5423 36.5918C95.569 36.5918 95.5816 36.5949 95.5838 36.5955C95.5855 36.5959 95.583 36.5953 95.5798 36.5933C95.5702 36.5876 95.5951 36.5973 95.6385 36.6717L97.366 35.664C96.9778 34.9985 96.3427 34.5918 95.5423 34.5918V36.5918ZM95.6702 36.7225C95.7773 36.8832 95.8863 37.1918 95.8863 37.7518H97.8863C97.8863 36.9679 97.7392 36.2204 97.3343 35.6131L95.6702 36.7225ZM95.8863 37.7518C95.8863 38.7982 95.6273 39.555 95.1902 40.1071L96.7583 41.3485C97.5372 40.3647 97.8863 39.1375 97.8863 37.7518H95.8863ZM95.1973 40.0983C93.784 41.8424 92.0916 43.1892 90.114 44.148L90.9865 45.9477C93.2329 44.8585 95.1565 43.3253 96.7512 41.3574L95.1973 40.0983ZM90.1198 44.1452C88.1502 45.0846 86.2808 45.5358 84.5023 45.5358V47.5358C86.6278 47.5358 88.7904 46.9951 90.9807 45.9504L90.1198 44.1452ZM112.302 24.7438L111.574 25.4292L111.595 25.4513L111.617 25.472L112.302 24.7438ZM112.59 31.7518L113.577 31.9136L113.579 31.9029L112.59 31.7518ZM111.822 37.3198L112.816 37.4303L112.816 37.4283L111.822 37.3198ZM110.766 45.7678L110.038 45.0825L110.037 45.0839L110.766 45.7678ZM106.062 45.7198L106.812 45.0582L106.812 45.0582L106.062 45.7198ZM106.014 36.9358L107.003 37.0863L107.003 37.0842L106.014 36.9358ZM104.286 32.9038L105.095 33.4921L105.103 33.4805L104.286 32.9038ZM101.982 37.1278L102.899 37.5278L102.899 37.5278L101.982 37.1278ZM100.11 42.6958L99.139 42.457L99.1364 42.468L100.11 42.6958ZM98.8621 45.7678L98.1123 45.1062L98.1096 45.1093L98.8621 45.7678ZM94.4941 45.4798L93.6399 45.9998L93.6534 46.0218L93.6679 46.0432L94.4941 45.4798ZM93.5821 42.1198L92.5877 42.2256L92.5877 42.2256L93.5821 42.1198ZM94.8301 20.0878L93.848 19.8996L93.8469 19.9053L94.8301 20.0878ZM99.2941 6.64784L98.4156 6.17006L98.4142 6.17281L99.2941 6.64784ZM109.95 3.09584L109.131 3.6693L109.139 3.68104L109.148 3.69254L109.95 3.09584ZM108.51 18.0718L109.388 18.5513L109.39 18.5479L108.51 18.0718ZM99.2941 30.2158L98.5572 29.5399L98.3163 29.8025L98.2958 30.1582L99.2941 30.2158ZM99.1501 35.3518H98.1501L100.082 35.7138L99.1501 35.3518ZM102.654 28.7278L101.858 28.1231L101.856 28.1254L102.654 28.7278ZM106.494 25.0318L105.996 24.1649L105.986 24.1705L106.494 25.0318ZM103.47 8.42384L104.388 8.81994L104.391 8.81348L103.47 8.42384ZM101.406 15.0958L100.433 14.8637L100.432 14.8718L101.406 15.0958ZM99.8221 24.2158L98.83 24.0906L98.4093 27.4241L100.584 24.8632L99.8221 24.2158ZM104.718 16.5838L103.815 16.1535L103.811 16.1621L104.718 16.5838ZM106.35 6.74383L107.275 6.36309L107.275 6.36308L106.35 6.74383ZM109.998 24.9278C110.852 24.9278 111.313 25.1517 111.574 25.4292L113.03 24.0585C112.267 23.248 111.192 22.9278 109.998 22.9278V24.9278ZM111.617 25.472C111.894 25.7332 112.118 26.194 112.118 27.0478H114.118C114.118 25.8537 113.798 24.7785 112.987 24.0156L111.617 25.472ZM112.118 27.0478C112.118 27.7926 111.955 29.288 111.602 31.6008L113.579 31.9029C113.929 29.6077 114.118 27.9671 114.118 27.0478H112.118ZM111.603 31.5901C111.281 33.5578 111.022 35.4316 110.828 37.2114L112.816 37.4283C113.006 35.688 113.26 33.8499 113.577 31.9136L111.603 31.5901ZM110.828 37.2094C110.631 38.9813 110.534 40.9551 110.534 43.1278H112.534C112.534 41.0126 112.629 39.1143 112.816 37.4303L110.828 37.2094ZM110.534 43.1278C110.534 44.2405 110.294 44.8107 110.038 45.0825L111.494 46.4532C112.263 45.6369 112.534 44.4472 112.534 43.1278H110.534ZM110.037 45.0839C109.833 45.3014 109.37 45.5358 108.366 45.5358V47.5358C109.602 47.5358 110.74 47.2583 111.496 46.4518L110.037 45.0839ZM108.366 45.5358C107.464 45.5358 107.029 45.304 106.812 45.0582L105.312 46.3815C106.055 47.2236 107.157 47.5358 108.366 47.5358V45.5358ZM106.812 45.0582C106.557 44.7694 106.342 44.2343 106.342 43.2718H104.342C104.342 44.4853 104.607 45.5822 105.312 46.3815L106.812 45.0582ZM106.342 43.2718C106.342 42.0745 106.555 40.0283 107.003 37.0863L105.026 36.7854C104.577 39.7314 104.342 41.9092 104.342 43.2718H106.342ZM107.003 37.0842C107.384 34.5476 107.59 32.8342 107.59 32.0398H105.59C105.59 32.6535 105.413 34.2041 105.025 36.7875L107.003 37.0842ZM107.59 32.0398C107.59 31.7003 107.537 31.2686 107.282 30.8973C106.981 30.4585 106.516 30.2718 106.062 30.2718V32.2718C106.029 32.2718 105.951 32.2655 105.857 32.2197C105.758 32.1716 105.682 32.1005 105.634 32.0304C105.59 31.9668 105.581 31.9225 105.582 31.9272C105.583 31.9319 105.59 31.9659 105.59 32.0398H107.59ZM106.062 30.2718C105.455 30.2718 104.96 30.6399 104.63 30.9435C104.258 31.2846 103.871 31.7576 103.469 32.3272L105.103 33.4805C105.469 32.9621 105.762 32.6191 105.983 32.4162C106.092 32.3156 106.162 32.2703 106.192 32.2539C106.224 32.2364 106.175 32.2718 106.062 32.2718V30.2718ZM103.477 32.3157C102.652 33.4507 101.85 34.9294 101.066 36.7279L102.899 37.5278C103.65 35.8063 104.384 34.469 105.095 33.492L103.477 32.3157ZM101.066 36.7279C100.274 38.5423 99.632 40.4524 99.1391 42.457L101.081 42.9346C101.548 41.0352 102.154 39.2333 102.899 37.5278L101.066 36.7279ZM99.1364 42.468C98.7887 43.954 98.4155 44.7625 98.1123 45.1062L99.612 46.4295C100.269 45.6851 100.728 44.4457 101.084 42.9237L99.1364 42.468ZM98.1096 45.1093C97.9251 45.3201 97.5406 45.5358 96.7021 45.5358V47.5358C97.8476 47.5358 98.9031 47.2396 99.6147 46.4263L98.1096 45.1093ZM96.7021 45.5358C95.9781 45.5358 95.5813 45.2993 95.3204 44.9165L93.6679 46.0432C94.3669 47.0684 95.4422 47.5358 96.7021 47.5358V45.5358ZM95.3483 44.9599C95.0146 44.4117 94.731 43.4661 94.5765 42.0141L92.5877 42.2256C92.7533 43.7816 93.0776 45.076 93.6399 45.9998L95.3483 44.9599ZM94.5765 42.0141C94.4223 40.5639 94.3421 38.3984 94.3421 35.4958H92.3421C92.3421 38.4172 92.422 40.6677 92.5877 42.2256L94.5765 42.0141ZM94.3421 35.4958C94.3421 30.6349 94.8314 25.5602 95.8133 20.2703L93.8469 19.9053C92.8449 25.3034 92.3421 30.5007 92.3421 35.4958H94.3421ZM95.8123 20.276C96.8229 15.0019 98.2834 10.6253 100.174 7.12286L98.4142 6.17281C96.4009 9.90236 94.8854 14.4858 93.848 19.8996L95.8123 20.276ZM100.173 7.12561C102.079 3.61985 104.179 2.17583 106.398 2.17583V0.175835C103.113 0.175835 100.477 2.37982 98.4156 6.17006L100.173 7.12561ZM106.398 2.17583C107.521 2.17583 108.408 2.63723 109.131 3.6693L110.769 2.52237C109.7 0.994439 108.219 0.175835 106.398 0.175835V2.17583ZM109.148 3.69254C109.914 4.72304 110.342 6.12699 110.342 7.99184H112.342C112.342 5.82468 111.842 3.96463 110.753 2.49913L109.148 3.69254ZM110.342 7.99184C110.342 11.0239 109.457 14.2212 107.631 17.5958L109.39 18.5479C111.339 14.9465 112.342 11.4238 112.342 7.99184H110.342ZM107.633 17.5924C105.799 20.9482 102.787 24.9285 98.5572 29.5399L100.031 30.8918C104.313 26.2232 107.445 22.1075 109.388 18.5513L107.633 17.5924ZM98.2958 30.1582C98.1986 31.8424 98.1501 33.5737 98.1501 35.3518H100.15C100.15 33.61 100.198 31.9172 100.292 30.2734L98.2958 30.1582ZM100.082 35.7138C101.116 33.0501 102.244 30.931 103.452 29.3302L101.856 28.1254C100.504 29.9167 99.2958 32.2135 98.2179 34.9899L100.082 35.7138ZM103.451 29.3325C104.719 27.6614 105.907 26.5389 107.002 25.8932L105.986 24.1705C104.585 24.9968 103.213 26.3383 101.858 28.1231L103.451 29.3325ZM106.993 25.8987C108.178 25.2169 109.173 24.9278 109.998 24.9278V22.9278C108.711 22.9278 107.37 23.3747 105.996 24.1649L106.993 25.8987ZM105.39 4.92784C104.611 4.92784 104.047 5.47159 103.686 5.94213C103.289 6.45716 102.914 7.17137 102.549 8.0342L104.391 8.81348C104.73 8.01231 105.027 7.47852 105.271 7.16155C105.549 6.80009 105.593 6.92784 105.39 6.92784V4.92784ZM102.552 8.02774C101.815 9.73517 101.112 12.0218 100.433 14.8637L102.379 15.328C103.045 12.5379 103.717 10.3765 104.388 8.81993L102.552 8.02774ZM100.432 14.8718C99.783 17.6932 99.2495 20.7666 98.83 24.0906L100.814 24.3411C101.227 21.0731 101.749 18.0665 102.381 15.3199L100.432 14.8718ZM100.584 24.8632C102.626 22.4595 104.307 19.8397 105.625 17.0056L103.811 16.1621C102.57 18.832 100.986 21.3002 99.0599 23.5685L100.584 24.8632ZM105.621 17.0142C106.975 14.1737 107.686 11.5284 107.686 9.09584H105.686C105.686 11.1433 105.085 13.49 103.815 16.1535L105.621 17.0142ZM107.686 9.09584C107.686 8.02357 107.572 7.0859 107.275 6.36309L105.425 7.12458C105.576 7.48977 105.686 8.1201 105.686 9.09584H107.686ZM107.275 6.36308C106.972 5.62825 106.379 4.92784 105.39 4.92784V6.92784C105.383 6.92784 105.363 6.92627 105.337 6.91683C105.312 6.90745 105.297 6.89626 105.294 6.89378C105.294 6.89366 105.351 6.94432 105.425 7.12459L107.275 6.36308ZM136.777 44.3278L136.039 45.0029L136.046 45.0107L136.777 44.3278ZM135.337 33.1918L134.359 32.98L134.357 32.9897L135.337 33.1918ZM138.313 19.4638L137.342 19.2213L137.339 19.2366L137.335 19.252L138.313 19.4638ZM138.745 17.3518L137.768 17.1349L137.765 17.1479L137.763 17.161L138.745 17.3518ZM138.649 11.8798L137.849 12.4798L137.864 12.5003L137.88 12.52L138.649 11.8798ZM134.089 12.6958L134.662 13.5151L134.669 13.5103L134.675 13.5054L134.089 12.6958ZM130.057 16.8718L129.255 16.274L129.251 16.2786L130.057 16.8718ZM127.369 17.1598L126.555 17.7411L126.579 17.7745L126.605 17.8058L127.369 17.1598ZM128.233 12.3118L127.424 11.723L127.42 11.7286L128.233 12.3118ZM144.265 7.36784L143.528 8.04446L143.533 8.04978L143.538 8.05503L144.265 7.36784ZM145.609 17.1118L144.622 16.9512L144.622 16.9512L145.609 17.1118ZM144.457 22.7278L143.482 22.5039L143.481 22.5092L144.457 22.7278ZM142.489 31.5118L141.513 31.2932L141.512 31.2949L142.489 31.5118ZM142.153 33.0478L141.175 32.8354L141.175 32.8354L142.153 33.0478ZM141.769 35.1598L142.757 35.3082L142.758 35.3013L141.769 35.1598ZM142.489 39.5278L141.763 40.2156L141.763 40.2156L142.489 39.5278ZM150.745 37.3678L150.026 36.672L150.021 36.6779L150.745 37.3678ZM156.217 27.4798L155.279 27.1323L155.277 27.136L156.217 27.4798ZM160.153 9.95984L159.162 9.82385L159.161 9.83031L160.153 9.95984ZM161.113 6.55183L160.293 5.97837L160.283 5.99244L160.274 6.00685L161.113 6.55183ZM166.153 6.59984L165.375 7.22903L165.375 7.22904L166.153 6.59984ZM166.633 13.2718L165.645 13.1147L165.643 13.1257L165.642 13.1367L166.633 13.2718ZM165.721 19.1758L166.705 19.3496L166.707 19.3382L165.721 19.1758ZM163.657 32.6638L164.647 32.8005L164.649 32.7879L163.657 32.6638ZM164.137 39.8158L163.363 40.4491L163.378 40.4683L163.395 40.4868L164.137 39.8158ZM169.609 39.7678L169.042 38.9438L169.036 38.948L169.03 38.9523L169.609 39.7678ZM173.209 36.2638L172.449 35.613L172.444 35.6192L173.209 36.2638ZM175.465 36.1678L174.601 36.6717L174.616 36.6976L174.632 36.7225L175.465 36.1678ZM174.937 40.7278L174.166 40.091L174.165 40.0913L174.937 40.7278ZM169.993 45.1438L169.498 44.2745L169.498 44.2745L169.993 45.1438ZM158.761 44.5198L158.062 45.2351L158.07 45.2432L158.761 44.5198ZM157.417 32.0878L158.406 32.2318L156.47 31.7658L157.417 32.0878ZM151.321 42.8398L150.613 42.1327L150.609 42.1374L151.321 42.8398ZM142.873 45.5358C140.365 45.5358 138.637 44.8535 137.507 43.645L136.046 45.0107C137.668 46.7461 140.004 47.5358 142.873 47.5358V45.5358ZM137.514 43.6528C136.343 42.3724 135.713 40.6328 135.713 38.3278H133.713C133.713 41.0149 134.458 43.2753 136.039 45.0029L137.514 43.6528ZM135.713 38.3278C135.713 37.011 135.908 35.3709 136.316 33.3939L134.357 32.9897C133.933 35.0447 133.713 36.8287 133.713 38.3278H135.713ZM136.314 33.4037L139.29 19.6757L137.335 19.252L134.359 32.98L136.314 33.4037ZM139.283 19.7064C139.355 19.4184 139.504 18.6832 139.726 17.5427L137.763 17.161C137.537 18.3245 137.398 18.9972 137.342 19.2213L139.283 19.7064ZM139.721 17.5688C139.995 16.3365 140.129 15.0149 140.129 13.6078H138.129C138.129 14.8887 138.006 16.0632 137.768 17.1349L139.721 17.5688ZM140.129 13.6078C140.129 12.7256 139.948 11.8778 139.417 11.2397L137.88 12.52C137.989 12.6499 138.129 12.9541 138.129 13.6078H140.129ZM139.449 11.2798C138.957 10.6251 138.251 10.3038 137.449 10.3038V12.3038C137.67 12.3038 137.764 12.3666 137.849 12.4798L139.449 11.2798ZM137.449 10.3038C136.18 10.3038 134.852 10.9074 133.502 11.8862L134.675 13.5054C135.885 12.6282 136.797 12.3038 137.449 12.3038V10.3038ZM133.515 11.8766C132.115 12.8564 130.698 14.3393 129.255 16.274L130.858 17.4697C132.231 15.6283 133.502 14.3272 134.662 13.5151L133.515 11.8766ZM129.251 16.2786C128.913 16.7373 128.682 16.7838 128.569 16.7838V18.7838C129.543 18.7838 130.304 18.2224 130.862 17.465L129.251 16.2786ZM128.569 16.7838C128.478 16.7838 128.339 16.7586 128.132 16.5139L126.605 17.8058C127.102 18.3931 127.763 18.7838 128.569 18.7838V16.7838ZM128.182 16.5786C127.982 16.298 127.889 16.0047 127.889 15.6718H125.889C125.889 16.4269 126.115 17.1257 126.555 17.7411L128.182 16.5786ZM127.889 15.6718C127.889 14.9755 128.208 14.0602 129.045 12.895L127.42 11.7286C126.465 13.0595 125.889 14.3842 125.889 15.6718H127.889ZM129.041 12.9007C132.172 8.60318 135.724 6.59184 139.705 6.59184V4.59184C134.917 4.59184 130.821 7.06049 127.424 11.723L129.041 12.9007ZM139.705 6.59184C141.441 6.59184 142.669 7.10981 143.528 8.04446L145.001 6.69121C143.684 5.25786 141.872 4.59184 139.705 4.59184V6.59184ZM143.538 8.05503C144.421 8.98846 144.945 10.4454 144.945 12.5998H146.945C146.945 10.1463 146.348 8.11521 144.991 6.68064L143.538 8.05503ZM144.945 12.5998C144.945 14.1869 144.836 15.6363 144.622 16.9512L146.596 17.2725C146.829 15.8353 146.945 14.2768 146.945 12.5998H144.945ZM144.622 16.9512C144.403 18.296 144.024 20.144 143.482 22.5039L145.431 22.9517C145.977 20.5757 146.366 18.6797 146.596 17.2725L144.622 16.9512ZM143.481 22.5092L141.513 31.2932L143.464 31.7305L145.432 22.9465L143.481 22.5092ZM141.512 31.2949C141.448 31.5854 141.335 32.0995 141.175 32.8354L143.13 33.2603C143.29 32.5242 143.401 32.0142 143.465 31.7288L141.512 31.2949ZM141.175 32.8354C141.011 33.5924 140.878 34.3202 140.779 35.0184L142.758 35.3013C142.851 34.6555 142.974 33.9753 143.13 33.2603L141.175 32.8354ZM140.78 35.0115C140.676 35.7001 140.625 36.3896 140.625 37.0798H142.625C142.625 36.49 142.669 35.8996 142.757 35.3082L140.78 35.0115ZM140.625 37.0798C140.625 38.2996 140.973 39.3824 141.763 40.2156L143.214 38.8401C142.852 38.4573 142.625 37.9081 142.625 37.0798H140.625ZM141.763 40.2156C142.574 41.0721 143.682 41.4398 144.937 41.4398V39.4398C144.079 39.4398 143.555 39.1995 143.214 38.8401L141.763 40.2156ZM144.937 41.4398C147.237 41.4398 149.417 40.2098 151.468 38.0578L150.021 36.6779C148.168 38.6219 146.476 39.4398 144.937 39.4398V41.4398ZM151.463 38.0636C153.589 35.8683 155.472 32.42 157.156 27.8237L155.277 27.136C153.633 31.6277 151.868 34.7713 150.026 36.672L151.463 38.0636ZM157.154 27.8274C158.885 23.1566 160.21 17.2366 161.144 10.0894L159.161 9.83031C158.239 16.8911 156.94 22.6511 155.279 27.1323L157.154 27.8274ZM161.143 10.0958C161.365 8.47884 161.665 7.53688 161.951 7.09682L160.274 6.00685C159.728 6.84679 159.388 8.17684 159.162 9.82386L161.143 10.0958ZM161.932 7.1253C162.102 6.88229 162.536 6.59184 163.657 6.59184V4.59184C162.281 4.59184 161.019 4.94138 160.293 5.97837L161.932 7.1253ZM163.657 6.59184C164.571 6.59184 165.074 6.85741 165.375 7.22903L166.93 5.97064C166.143 4.99826 164.982 4.59184 163.657 4.59184V6.59184ZM165.375 7.22904C165.702 7.6325 165.969 8.4362 165.969 9.86383H167.969C167.969 8.28347 167.691 6.91117 166.93 5.97064L165.375 7.22904ZM165.969 9.86383C165.969 10.6525 165.865 11.7299 165.645 13.1147L167.62 13.429C167.848 11.9977 167.969 10.8032 167.969 9.86383H165.969ZM165.642 13.1367C165.452 14.5311 165.149 16.4886 164.734 19.0135L166.707 19.3382C167.124 16.8071 167.429 14.8285 167.623 13.4069L165.642 13.1367ZM164.736 19.0021C163.869 23.9114 163.179 28.4242 162.664 32.5398L164.649 32.7879C165.158 28.7115 165.844 24.2323 166.705 19.3496L164.736 19.0021ZM162.666 32.5272C162.409 34.3908 162.273 35.8235 162.273 36.7918H164.273C164.273 35.9682 164.392 34.6489 164.647 32.8005L162.666 32.5272ZM162.273 36.7918C162.273 38.2351 162.588 39.5021 163.363 40.4491L164.91 39.1826C164.533 38.7216 164.273 37.9726 164.273 36.7918H162.273ZM163.395 40.4868C164.212 41.3895 165.292 41.8238 166.537 41.8238V39.8238C165.797 39.8238 165.277 39.5862 164.878 39.1449L163.395 40.4868ZM166.537 41.8238C167.83 41.8238 169.053 41.3885 170.187 40.5833L169.03 38.9523C168.18 39.5552 167.355 39.8238 166.537 39.8238V41.8238ZM170.175 40.5919C171.307 39.8136 172.574 38.5674 173.973 36.9084L172.444 35.6192C171.091 37.2243 169.958 38.314 169.042 38.9438L170.175 40.5919ZM173.968 36.9146C174.209 36.6329 174.382 36.5918 174.505 36.5918V34.5918C173.667 34.5918 172.976 34.9988 172.449 35.613L173.968 36.9146ZM174.505 36.5918C174.531 36.5918 174.544 36.5949 174.546 36.5955C174.548 36.5959 174.545 36.5953 174.542 36.5933C174.532 36.5876 174.557 36.5973 174.601 36.6717L176.328 35.664C175.94 34.9985 175.305 34.5918 174.505 34.5918V36.5918ZM174.632 36.7225C174.74 36.8832 174.849 37.1918 174.849 37.7518H176.849C176.849 36.9679 176.701 36.2204 176.297 35.6131L174.632 36.7225ZM174.849 37.7518C174.849 38.8397 174.585 39.583 174.166 40.091L175.707 41.3647C176.504 40.4007 176.849 39.16 176.849 37.7518H174.849ZM174.165 40.0913C172.551 42.0476 170.992 43.4252 169.498 44.2745L170.487 46.0131C172.257 45.0065 173.994 43.4401 175.708 41.3644L174.165 40.0913ZM169.498 44.2745C168.009 45.1211 166.467 45.5358 164.857 45.5358V47.5358C166.83 47.5358 168.712 47.0226 170.487 46.0131L169.498 44.2745ZM164.857 45.5358C162.362 45.5358 160.614 44.9065 159.451 43.7965L158.07 45.2432C159.723 46.8212 162.039 47.5358 164.857 47.5358V45.5358ZM159.459 43.8046C158.265 42.6376 157.649 41.1298 157.649 39.1918H155.649C155.649 41.6058 156.44 43.6501 158.062 45.235L159.459 43.8046ZM157.649 39.1918C157.649 38.0598 157.893 35.7625 158.406 32.2318L156.427 31.9439C155.916 35.4532 155.649 37.8919 155.649 39.1918H157.649ZM156.47 31.7658C154.9 36.3824 152.933 39.8131 150.613 42.1327L152.028 43.5469C154.636 40.9386 156.734 37.2013 158.363 32.4099L156.47 31.7658ZM150.609 42.1374C148.348 44.4282 145.782 45.5358 142.873 45.5358V47.5358C146.363 47.5358 149.429 46.1794 152.032 43.5423L150.609 42.1374ZM189.176 38.8558L188.289 38.3937L188.286 38.3985L189.176 38.8558ZM184.52 44.3278L183.935 43.5168L183.928 43.5214L184.52 44.3278ZM178.328 46.5358L178.299 45.5363L177.391 45.5626L177.33 46.4686L178.328 46.5358ZM175.496 61.9918L174.554 61.656L174.553 61.6583L175.496 61.9918ZM166.088 50.1838L165.143 49.8567L165.142 49.859L166.088 50.1838ZM172.76 36.4078L173.618 36.9215L173.76 36.6843V36.4078H172.76ZM172.664 26.6638L171.664 26.6983L171.664 26.6989L172.664 26.6638ZM173.768 24.4558L174.346 25.2719L174.346 25.2719L173.768 24.4558ZM178.088 24.0718L177.381 24.7789L177.42 24.8181L177.463 24.8527L178.088 24.0718ZM178.616 25.6558H179.616V25.6358L179.615 25.6159L178.616 25.6558ZM178.664 27.4318L177.667 27.5149L177.876 30.0176L179.445 28.0565L178.664 27.4318ZM181.688 24.6958L182.168 25.5726L182.179 25.5668L182.19 25.5606L181.688 24.6958ZM189.224 25.9918L188.434 26.6058L188.443 26.6165L189.224 25.9918ZM178.568 41.9278L177.568 41.8879L177.517 43.1858L178.785 42.904L178.568 41.9278ZM181.736 40.0558L181.017 39.36L181.017 39.3604L181.736 40.0558ZM184.088 36.3118L185.019 36.6762L185.021 36.6695L184.088 36.3118ZM184.376 29.4478L183.576 30.0478L183.585 30.0603L183.595 30.0725L184.376 29.4478ZM178.664 32.3278L177.833 31.7706L177.671 32.0131L177.664 32.3051L178.664 32.3278ZM171.56 57.8638L170.571 57.7118L170.571 57.713L171.56 57.8638ZM172.664 43.8478L173.663 43.8764L171.745 43.4528L172.664 43.8478ZM169.4 53.0158L168.435 52.7509L168.435 52.7509L169.4 53.0158ZM168.584 62.7118L169.508 62.3311L169.499 62.3083L169.488 62.286L168.584 62.7118ZM189.952 31.6558C189.952 34.0207 189.4 36.2624 188.289 38.3937L190.062 39.318C191.32 36.9053 191.952 34.347 191.952 31.6558H189.952ZM188.286 38.3985C187.203 40.505 185.753 42.2054 183.935 43.5168L185.105 45.1389C187.191 43.6343 188.844 41.6867 190.065 39.3132L188.286 38.3985ZM183.928 43.5214C182.158 44.8193 180.288 45.4786 178.299 45.5363L178.357 47.5354C180.783 47.4651 183.041 46.6524 185.111 45.1342L183.928 43.5214ZM177.33 46.4686C176.918 52.5874 175.985 57.642 174.554 61.656L176.438 62.3277C177.95 58.0857 178.906 52.8362 179.325 46.603L177.33 46.4686ZM174.553 61.6583C173.131 65.6755 171.22 67.2318 169.016 67.2318V69.2318C172.507 69.2318 174.916 66.6282 176.438 62.3254L174.553 61.6583ZM169.016 67.2318C167.563 67.2318 166.624 66.7291 166.008 65.8051L164.344 66.9145C165.392 68.4866 167.012 69.2318 169.016 69.2318V67.2318ZM166.008 65.8051C165.326 64.7819 164.928 63.2745 164.928 61.1758H162.928C162.928 63.4932 163.362 65.4417 164.344 66.9145L166.008 65.8051ZM164.928 61.1758C164.928 58.1857 165.616 54.6358 167.033 50.5087L165.142 49.859C163.68 54.1158 162.928 57.894 162.928 61.1758H164.928ZM167.033 50.5109C168.444 46.4332 170.634 41.9046 173.618 36.9215L171.902 35.8941C168.869 40.9591 166.611 45.6144 165.143 49.8567L167.033 50.5109ZM173.76 36.4078C173.76 31.7366 173.728 28.4725 173.663 26.6288L171.664 26.6989C171.728 28.5032 171.76 31.735 171.76 36.4078H173.76ZM173.663 26.6294C173.643 26.0432 173.848 25.6245 174.346 25.2719L173.19 23.6398C172.151 24.3751 171.62 25.4285 171.664 26.6983L173.663 26.6294ZM174.346 25.2719C174.91 24.8722 175.656 24.6398 176.648 24.6398V22.6398C175.336 22.6398 174.161 22.9515 173.19 23.6398L174.346 25.2719ZM176.648 24.6398C177.218 24.6398 177.371 24.769 177.381 24.7789L178.795 23.3647C178.229 22.7987 177.421 22.6398 176.648 22.6398V24.6398ZM177.463 24.8527C177.427 24.8243 177.463 24.8314 177.511 24.9761C177.559 25.1212 177.603 25.3524 177.616 25.6958L179.615 25.6159C179.581 24.774 179.399 23.84 178.712 23.291L177.463 24.8527ZM177.616 25.6558C177.616 26.4607 177.631 27.0873 177.667 27.5149L179.66 27.3488C179.632 27.0084 179.616 26.4509 179.616 25.6558H177.616ZM179.445 28.0565C180.42 26.8371 181.332 26.0315 182.168 25.5726L181.207 23.819C180.06 24.4482 178.955 25.4666 177.883 26.8071L179.445 28.0565ZM182.19 25.5606C183.033 25.0709 183.916 24.8318 184.856 24.8318V22.8318C183.555 22.8318 182.326 23.1687 181.185 23.831L182.19 25.5606ZM184.856 24.8318C186.333 24.8318 187.5 25.4042 188.434 26.6058L190.013 25.3779C188.708 23.6994 186.963 22.8318 184.856 22.8318V24.8318ZM188.443 26.6165C189.419 27.8364 189.952 29.4852 189.952 31.6558H191.952C191.952 29.1545 191.333 27.0273 190.005 25.3671L188.443 26.6165ZM178.785 42.904C180.158 42.5987 181.382 41.8595 182.454 40.7513L181.017 39.3604C180.17 40.2361 179.281 40.7449 178.351 40.9517L178.785 42.904ZM182.454 40.7516C183.548 39.6225 184.4 38.2583 185.019 36.6762L183.156 35.9474C182.623 37.3094 181.908 38.4411 181.017 39.36L182.454 40.7516ZM185.021 36.6695C185.642 35.0498 185.952 33.3604 185.952 31.6078H183.952C183.952 33.1192 183.685 34.5659 183.154 35.9542L185.021 36.6695ZM185.952 31.6078C185.952 30.541 185.743 29.5558 185.157 28.8231L183.595 30.0725C183.777 30.2999 183.952 30.7547 183.952 31.6078H185.952ZM185.176 28.8478C184.603 28.084 183.794 27.6798 182.84 27.6798V29.6798C183.165 29.6798 183.38 29.7876 183.576 30.0478L185.176 28.8478ZM182.84 27.6798C181.912 27.6798 181.048 28.1623 180.274 28.8387C179.485 29.5276 178.673 30.5191 177.833 31.7706L179.494 32.8851C180.286 31.7046 180.986 30.8721 181.59 30.3449C182.207 29.8054 182.615 29.6798 182.84 29.6798V27.6798ZM177.664 32.3051C177.632 33.7247 177.616 35.7978 177.616 38.5198H179.616C179.616 35.8018 179.632 33.7469 179.663 32.3506L177.664 32.3051ZM177.616 38.5198C177.616 39.9875 177.6 41.1079 177.568 41.8879L179.567 41.9678C179.6 41.1478 179.616 39.9961 179.616 38.5198H177.616ZM169.4 64.5278C170.021 64.5278 170.483 64.179 170.787 63.8166C171.088 63.458 171.324 62.9866 171.522 62.4682C171.921 61.4229 172.257 59.9225 172.548 58.0146L170.571 57.713C170.286 59.5811 169.975 60.9128 169.653 61.7555C169.491 62.1811 169.35 62.4177 169.255 62.5311C169.163 62.6407 169.21 62.5278 169.4 62.5278V64.5278ZM172.548 58.0159C173.132 54.2167 173.503 49.5002 173.663 43.8764L171.664 43.8193C171.505 49.3955 171.139 54.023 170.571 57.7118L172.548 58.0159ZM171.745 43.4528C170.353 46.6888 169.249 49.7884 168.435 52.7509L170.364 53.2807C171.15 50.4192 172.222 47.4069 173.582 44.2429L171.745 43.4528ZM168.435 52.7509C167.623 55.7093 167.2 58.2527 167.2 60.3598H169.2C169.2 58.499 169.577 56.1464 170.364 53.2807L168.435 52.7509ZM167.2 60.3598C167.2 61.4414 167.331 62.398 167.679 63.1376L169.488 62.286C169.325 61.9377 169.2 61.3262 169.2 60.3598H167.2ZM167.659 63.0926C167.901 63.6812 168.409 64.5278 169.4 64.5278V62.5278C169.466 62.5278 169.532 62.5431 169.586 62.5682C169.637 62.5917 169.662 62.6157 169.663 62.6167C169.663 62.6168 169.645 62.5988 169.615 62.5494C169.585 62.5005 169.549 62.4297 169.508 62.3311L167.659 63.0926Z" fill="black" mask="url(#path-1-outside-1_2_167)"/>
</svg>
