<svg width="184" height="94" viewBox="0 0 184 94" fill="none" xmlns="http://www.w3.org/2000/svg">
<path d="M41.2094 14.9408C41.2094 17.6608 40.2494 20.0128 38.3294 21.9968C36.4094 23.9488 33.6094 25.3568 29.9294 26.2208C31.9134 26.7648 33.4174 27.6608 34.4414 28.9088C35.4654 30.1248 35.9774 31.5328 35.9774 33.1328C35.9774 35.6608 35.1774 37.8528 33.5774 39.7088C32.0094 41.5648 29.7054 43.0048 26.6654 44.0288C23.6254 45.0208 19.9614 45.5168 15.6734 45.5168C14.0734 45.5168 12.7934 45.4688 11.8334 45.3728C11.8014 46.2688 11.4174 46.9408 10.6814 47.3888C9.94536 47.8368 9.00136 48.0608 7.84936 48.0608C6.69736 48.0608 5.89736 47.8048 5.44936 47.2928C5.03336 46.7808 4.85736 46.0288 4.92136 45.0368C5.20936 40.5568 5.76936 35.8688 6.60136 30.9728C7.43336 26.0448 8.48936 21.2928 9.76937 16.7168C9.99337 15.9168 10.4414 15.3568 11.1134 15.0368C11.7854 14.7168 12.6654 14.5568 13.7534 14.5568C15.7054 14.5568 16.6814 15.1008 16.6814 16.1888C16.6814 16.6368 16.5854 17.1488 16.3934 17.7248C15.5614 20.2208 14.7294 23.6128 13.8974 27.9008C13.0654 32.1568 12.4734 36.2208 12.1214 40.0928C13.6574 40.2208 14.9054 40.2848 15.8654 40.2848C20.3454 40.2848 23.6254 39.6448 25.7054 38.3648C27.8174 37.0528 28.8734 35.3888 28.8734 33.3728C28.8734 31.9648 28.2654 30.7808 27.0494 29.8208C25.8654 28.8608 23.8654 28.3328 21.0494 28.2368C20.4094 28.2048 19.9614 28.0448 19.7054 27.7568C19.4494 27.4688 19.3214 27.0048 19.3214 26.3648C19.3214 25.4368 19.5134 24.6848 19.8974 24.1088C20.2814 23.5328 20.9854 23.2288 22.0094 23.1968C24.2814 23.1328 26.3294 22.7968 28.1534 22.1888C30.0094 21.5808 31.4654 20.7328 32.5214 19.6448C33.5774 18.5248 34.1054 17.2288 34.1054 15.7568C34.1054 13.9008 33.1934 12.4448 31.3694 11.3888C29.5454 10.3008 26.7454 9.75681 22.9694 9.75681C19.5454 9.75681 16.2334 10.2048 13.0334 11.1008C9.83336 11.9648 7.11336 13.0688 4.87336 14.4128C3.84936 15.0208 2.98536 15.3248 2.28136 15.3248C1.70536 15.3248 1.25736 15.1328 0.937364 14.7488C0.649364 14.3328 0.505364 13.8208 0.505364 13.2128C0.505364 12.4128 0.665364 11.7248 0.985364 11.1488C1.33736 10.5728 2.15336 9.91681 3.43336 9.18081C6.12136 7.64481 9.27337 6.44481 12.8894 5.58081C16.5054 4.71681 20.2014 4.28481 23.9774 4.28481C29.7694 4.28481 34.0894 5.26081 36.9374 7.21281C39.7854 9.16481 41.2094 11.7408 41.2094 14.9408ZM46.903 20.1248C45.559 20.1248 44.551 19.8208 43.879 19.2128C43.207 18.5728 42.871 17.6928 42.871 16.5728C42.871 15.4528 43.303 14.5248 44.167 13.7888C45.063 13.0208 46.167 12.6368 47.479 12.6368C48.663 12.6368 49.623 12.9248 50.359 13.5008C51.095 14.0768 51.463 14.8928 51.463 15.9488C51.463 17.2288 51.047 18.2528 50.215 19.0208C49.383 19.7568 48.279 20.1248 46.903 20.1248ZM46.519 45.9008C44.439 45.9008 42.919 45.1648 41.959 43.6928C41.031 42.2208 40.567 40.2688 40.567 37.8368C40.567 36.3968 40.743 34.5568 41.095 32.3168C41.479 30.0448 41.959 27.9328 42.535 25.9808C42.823 24.9568 43.207 24.2528 43.687 23.8688C44.167 23.4848 44.935 23.2928 45.991 23.2928C47.623 23.2928 48.439 23.8368 48.439 24.9248C48.439 25.7248 48.135 27.5808 47.527 30.4928C46.759 34.0128 46.375 36.3968 46.375 37.6448C46.375 38.6048 46.503 39.3408 46.759 39.8528C47.015 40.3648 47.447 40.6208 48.055 40.6208C48.631 40.6208 49.351 40.2208 50.215 39.4208C51.079 38.6208 52.231 37.3568 53.671 35.6288C54.055 35.1808 54.487 34.9568 54.967 34.9568C55.383 34.9568 55.703 35.1488 55.927 35.5328C56.183 35.9168 56.311 36.4448 56.311 37.1168C56.311 38.3968 56.007 39.3888 55.399 40.0928C52.231 43.9648 49.271 45.9008 46.519 45.9008ZM88.7042 31.0688C88.8002 31.0368 88.9602 31.0208 89.1842 31.0208C89.6642 31.0208 90.0322 31.1808 90.2882 31.5008C90.5442 31.8208 90.6722 32.2528 90.6722 32.7968C90.6722 33.7888 90.4802 34.5728 90.0962 35.1488C89.7122 35.6928 89.1362 36.0928 88.3682 36.3488C86.8962 36.8288 85.3282 37.0688 83.6642 37.0688C82.2562 37.0688 80.9282 36.8768 79.6802 36.4928C78.7522 37.9968 77.7282 39.5488 76.6082 41.1488C75.3282 42.9728 74.2242 44.2208 73.2962 44.8928C72.4002 45.5648 71.3762 45.9008 70.2242 45.9008C68.9442 45.9008 67.9682 45.4048 67.2962 44.4128C66.6562 43.4208 66.2562 41.7888 66.0962 39.5168L65.8562 36.0128C64.8642 38.7008 63.9682 40.7488 63.1682 42.1568C62.4002 43.5648 61.6162 44.5408 60.8162 45.0848C60.0482 45.6288 59.1362 45.9008 58.0802 45.9008C56.7682 45.9008 55.7282 45.3888 54.9602 44.3648C54.2242 43.3408 53.7602 41.7248 53.5682 39.5168C53.1842 35.0368 52.9922 31.1168 52.9922 27.7568V26.0768C53.0242 25.0208 53.3122 24.2848 53.8562 23.8688C54.4002 23.4528 55.2162 23.2448 56.3042 23.2448C57.1362 23.2448 57.7442 23.4368 58.1282 23.8208C58.5442 24.1728 58.7522 24.7808 58.7522 25.6448C58.7522 29.3248 58.9762 34.1088 59.4242 39.9968C61.6002 35.4208 63.6002 30.6528 65.4242 25.6928C65.7762 24.7328 66.1922 24.0928 66.6722 23.7728C67.1842 23.4208 67.7922 23.2448 68.4962 23.2448C69.3602 23.2448 69.9522 23.4208 70.2722 23.7728C70.6242 24.1248 70.8002 24.7488 70.8002 25.6448C70.8002 29.3248 71.0242 34.1088 71.4722 39.9968C73.3922 37.1488 74.8322 34.8768 75.7922 33.1808C75.3122 32.2528 75.0722 31.1488 75.0722 29.8688C75.0722 28.7808 75.3122 27.7248 75.7922 26.7008C76.2722 25.6768 76.9282 24.8448 77.7602 24.2048C78.5922 23.5648 79.5362 23.2448 80.5922 23.2448C81.5202 23.2448 82.2722 23.5808 82.8482 24.2528C83.4242 24.8928 83.7122 25.8368 83.7122 27.0848C83.7122 28.5248 83.3282 30.1728 82.5602 32.0288C83.7762 31.9648 85.3922 31.7248 87.4082 31.3088L88.7042 31.0688ZM107.914 34.9568C108.33 34.9568 108.65 35.1488 108.874 35.5328C109.13 35.9168 109.258 36.4448 109.258 37.1168C109.258 38.3968 108.954 39.3888 108.346 40.0928C107.162 41.5328 105.482 42.8608 103.306 44.0768C101.162 45.2928 98.8576 45.9008 96.3936 45.9008C93.0336 45.9008 90.4256 44.9888 88.5696 43.1648C86.7136 41.3408 85.7856 38.8448 85.7856 35.6768C85.7856 33.4688 86.2496 31.4208 87.1776 29.5328C88.1056 27.6128 89.3856 26.0928 91.0176 24.9728C92.6816 23.8528 94.5536 23.2928 96.6336 23.2928C98.4896 23.2928 99.9776 23.8528 101.098 24.9728C102.218 26.0608 102.778 27.5488 102.778 29.4368C102.778 31.6448 101.978 33.5488 100.378 35.1488C98.8096 36.7168 96.1376 37.9648 92.3616 38.8928C93.1616 40.3648 94.6816 41.1008 96.9216 41.1008C98.3616 41.1008 99.9936 40.6048 101.818 39.6128C103.674 38.5888 105.274 37.2608 106.618 35.6288C107.002 35.1808 107.434 34.9568 107.914 34.9568ZM95.8176 27.9968C94.6336 27.9968 93.6256 28.6848 92.7936 30.0608C91.9936 31.4368 91.5936 33.1008 91.5936 35.0528V35.1488C93.4816 34.7008 94.9696 34.0288 96.0576 33.1328C97.1456 32.2368 97.6896 31.1968 97.6896 30.0128C97.6896 29.4048 97.5136 28.9248 97.1616 28.5728C96.8416 28.1888 96.3936 27.9968 95.8176 27.9968ZM126.757 34.9568C127.173 34.9568 127.493 35.1488 127.717 35.5328C127.973 35.9168 128.101 36.4448 128.101 37.1168C128.101 38.3968 127.797 39.3888 127.189 40.0928C126.005 41.5328 124.325 42.8608 122.149 44.0768C120.005 45.2928 117.701 45.9008 115.237 45.9008C111.877 45.9008 109.269 44.9888 107.413 43.1648C105.557 41.3408 104.629 38.8448 104.629 35.6768C104.629 33.4688 105.093 31.4208 106.021 29.5328C106.949 27.6128 108.229 26.0928 109.861 24.9728C111.525 23.8528 113.397 23.2928 115.477 23.2928C117.333 23.2928 118.821 23.8528 119.941 24.9728C121.061 26.0608 121.621 27.5488 121.621 29.4368C121.621 31.6448 120.821 33.5488 119.221 35.1488C117.653 36.7168 114.981 37.9648 111.205 38.8928C112.005 40.3648 113.525 41.1008 115.765 41.1008C117.205 41.1008 118.837 40.6048 120.661 39.6128C122.517 38.5888 124.117 37.2608 125.461 35.6288C125.845 35.1808 126.277 34.9568 126.757 34.9568ZM114.661 27.9968C113.477 27.9968 112.469 28.6848 111.637 30.0608C110.837 31.4368 110.437 33.1008 110.437 35.0528V35.1488C112.325 34.7008 113.813 34.0288 114.901 33.1328C115.989 32.2368 116.533 31.1968 116.533 30.0128C116.533 29.4048 116.357 28.9248 116.005 28.5728C115.685 28.1888 115.237 27.9968 114.661 27.9968ZM151.937 34.9568C152.353 34.9568 152.673 35.1488 152.897 35.5328C153.153 35.9168 153.281 36.4448 153.281 37.1168C153.281 38.3968 152.977 39.3888 152.369 40.0928C150.929 41.8528 149.473 43.2608 148.001 44.3168C146.529 45.3728 144.785 45.9008 142.769 45.9008C140.305 45.9008 138.321 45.1968 136.817 43.7888C135.313 42.3808 134.561 40.5088 134.561 38.1728C134.561 36.9248 135.201 36.0288 136.481 35.4848C137.889 34.8768 138.897 34.2368 139.505 33.5648C140.113 32.8608 140.417 32.0128 140.417 31.0208C140.417 30.4448 140.289 30.0128 140.033 29.7248C139.809 29.4368 139.521 29.2928 139.169 29.2928C138.305 29.2928 137.345 29.9168 136.289 31.1648C135.265 32.4128 134.305 34.0288 133.409 36.0128C132.513 37.9648 131.809 39.9808 131.297 42.0608C130.945 43.5648 130.529 44.5888 130.049 45.1328C129.601 45.6448 128.881 45.9008 127.889 45.9008C126.897 45.9008 126.161 45.5488 125.681 44.8448C125.233 44.1088 124.929 42.9888 124.769 41.4848C124.609 39.9808 124.529 37.7728 124.529 34.8608C124.529 29.9328 125.025 24.7968 126.017 19.4528C127.041 14.1088 128.529 9.62881 130.481 6.01281C132.465 2.36481 134.833 0.54081 137.585 0.54081C139.057 0.54081 140.241 1.18081 141.137 2.46081C142.065 3.70881 142.529 5.34081 142.529 7.35681C142.529 10.5888 141.585 13.9488 139.697 17.4368C137.809 20.8928 134.737 24.9408 130.481 29.5808C130.385 31.2448 130.337 32.9568 130.337 34.7168C131.873 30.7168 133.633 27.8208 135.617 26.0288C137.601 24.2048 139.457 23.2928 141.185 23.2928C142.785 23.2928 144.065 23.8368 145.025 24.9248C146.017 26.0128 146.513 27.3568 146.513 28.9568C146.513 30.7168 146.065 32.3328 145.169 33.8048C144.273 35.2768 142.737 36.5888 140.561 37.7408C140.689 38.6048 141.073 39.3088 141.713 39.8528C142.385 40.3648 143.185 40.6208 144.113 40.6208C145.105 40.6208 146.065 40.2368 146.993 39.4688C147.921 38.7008 149.137 37.4208 150.641 35.6288C151.025 35.1808 151.457 34.9568 151.937 34.9568ZM136.577 5.29281C136.001 5.29281 135.361 6.12481 134.657 7.78881C133.953 9.42081 133.265 11.6448 132.593 14.4608C131.953 17.2448 131.425 20.2848 131.009 23.5808C132.993 21.2448 134.625 18.7008 135.905 15.9488C137.217 13.1968 137.873 10.7008 137.873 8.46081C137.873 7.43681 137.761 6.65281 137.537 6.10881C137.313 5.56481 136.993 5.29281 136.577 5.29281ZM167.604 34.9568C168.02 34.9568 168.34 35.1488 168.564 35.5328C168.82 35.9168 168.948 36.4448 168.948 37.1168C168.948 38.3968 168.644 39.3888 168.036 40.0928C166.66 41.7888 165.156 43.1808 163.524 44.2688C161.924 45.3568 160.1 45.9008 158.052 45.9008C155.236 45.9008 153.14 44.6208 151.764 42.0608C150.42 39.5008 149.748 36.1888 149.748 32.1248C149.748 28.2208 150.244 23.7728 151.236 18.7808C152.26 13.7888 153.748 9.50081 155.7 5.91681C157.684 2.33281 160.036 0.54081 162.756 0.54081C164.292 0.54081 165.492 1.26081 166.356 2.70081C167.252 4.10881 167.7 6.14081 167.7 8.79681C167.7 12.6048 166.644 17.0208 164.532 22.0448C162.42 27.0688 159.556 32.0448 155.94 36.9728C156.164 38.2848 156.532 39.2288 157.044 39.8048C157.556 40.3488 158.228 40.6208 159.06 40.6208C160.372 40.6208 161.524 40.2528 162.516 39.5168C163.508 38.7488 164.772 37.4528 166.308 35.6288C166.692 35.1808 167.124 34.9568 167.604 34.9568ZM161.7 5.29281C160.964 5.29281 160.132 6.62081 159.204 9.27681C158.276 11.9328 157.46 15.2288 156.756 19.1648C156.052 23.1008 155.668 26.8768 155.604 30.4928C157.876 26.7488 159.684 23.0048 161.028 19.2608C162.372 15.4848 163.044 12.0448 163.044 8.94081C163.044 6.50881 162.596 5.29281 161.7 5.29281ZM181.868 23.2928C182.604 23.2928 183.116 23.3888 183.404 23.5808C183.692 23.7728 183.836 24.0928 183.836 24.5408C183.836 25.3088 183.42 28.0448 182.588 32.7488C181.852 37.2608 181.42 39.9328 181.292 40.7648C180.108 48.9888 178.476 55.5008 176.396 60.3008C174.316 65.1008 171.548 67.5008 168.092 67.5008C166.46 67.5008 165.132 66.9888 164.108 65.9648C163.084 64.9728 162.572 63.6608 162.572 62.0288C162.572 60.5248 162.908 58.9888 163.58 57.4208C164.284 55.8528 165.564 54.0448 167.42 51.9968C169.308 49.9808 171.964 47.6608 175.388 45.0368L175.532 43.9328C175.756 42.7488 176.012 41.0528 176.3 38.8448C175.66 41.1488 174.764 42.9088 173.612 44.1248C172.46 45.3088 171.244 45.9008 169.964 45.9008C168.524 45.9008 167.34 45.2448 166.412 43.9328C165.516 42.5888 165.068 40.9248 165.068 38.9408C165.068 36.5408 165.228 34.3488 165.548 32.3648C165.868 30.3488 166.396 28.2208 167.132 25.9808C167.452 25.0208 167.9 24.3328 168.476 23.9168C169.052 23.5008 169.964 23.2928 171.212 23.2928C171.916 23.2928 172.396 23.4048 172.652 23.6288C172.94 23.8528 173.084 24.1888 173.084 24.6368C173.084 24.8928 172.908 25.7568 172.556 27.2288C172.236 28.4128 171.98 29.4848 171.788 30.4448C171.532 31.7568 171.308 33.0208 171.116 34.2368C170.924 35.4208 170.828 36.3968 170.828 37.1648C170.828 38.3808 171.164 38.9888 171.836 38.9888C172.316 38.9888 172.908 38.5088 173.612 37.5488C174.348 36.5888 175.116 35.1328 175.916 33.1808C176.748 31.2288 177.548 28.8288 178.316 25.9808C178.572 25.0208 178.956 24.3328 179.468 23.9168C180.012 23.5008 180.812 23.2928 181.868 23.2928ZM168.62 62.8448C169.42 62.8448 170.316 61.9168 171.308 60.0608C172.3 58.2048 173.292 55.1168 174.284 50.7968C171.82 52.8768 170.028 54.7648 168.908 56.4608C167.82 58.1888 167.276 59.6928 167.276 60.9728C167.276 61.5168 167.372 61.9648 167.564 62.3168C167.788 62.6688 168.14 62.8448 168.62 62.8448ZM14.3294 93.9008C12.4734 93.9008 10.3774 93.7408 8.04136 93.4208C6.76136 93.2608 5.88136 92.9248 5.40136 92.4128C4.92136 91.9008 4.71336 91.0688 4.77736 89.9168C5.00136 86.7488 5.52936 82.8448 6.36136 78.2048C7.19336 73.5328 8.20136 69.0368 9.38537 64.7168C9.60936 63.9168 10.0574 63.3568 10.7294 63.0368C11.4014 62.7168 12.2814 62.5568 13.3694 62.5568C15.3214 62.5568 16.2974 63.1008 16.2974 64.1888C16.2974 64.6368 16.2014 65.1488 16.0094 65.7248C15.1774 68.2848 14.3454 71.7248 13.5134 76.0448C12.6814 80.3328 12.0894 84.4288 11.7374 88.3328C12.6974 88.4288 13.7854 88.4768 15.0014 88.4768C20.6014 88.4768 24.7774 86.7808 27.5294 83.3888C30.3134 79.9968 31.7054 75.4688 31.7054 69.8048C31.7054 65.9968 30.6174 63.0528 28.4414 60.9728C26.2654 58.8928 23.1934 57.8528 19.2254 57.8528C16.6654 57.8528 14.1214 58.2528 11.5934 59.0528C9.09736 59.8528 6.84136 60.9088 4.82536 62.2208C4.40936 62.5088 3.96136 62.6528 3.48136 62.6528C2.93736 62.6528 2.50536 62.4288 2.18536 61.9808C1.86536 61.5008 1.70536 60.9248 1.70536 60.2528C1.70536 59.4848 1.83336 58.8608 2.08936 58.3808C2.34536 57.8688 2.77736 57.4048 3.38536 56.9888C5.59336 55.4848 8.18536 54.3488 11.1614 53.5808C14.1374 52.7808 17.0014 52.3808 19.7534 52.3808C23.6574 52.3808 27.0334 53.0688 29.8814 54.4448C32.7294 55.7888 34.9214 57.7728 36.4574 60.3968C37.9934 63.0208 38.7614 66.1888 38.7614 69.9008C38.7614 74.7328 37.8014 78.9568 35.8814 82.5728C33.9614 86.1568 31.1614 88.9408 27.4814 90.9248C23.8014 92.9088 19.4174 93.9008 14.3294 93.9008ZM63.3824 82.9568C63.7984 82.9568 64.1184 83.1488 64.3424 83.5328C64.5984 83.9168 64.7264 84.4448 64.7264 85.1168C64.7264 86.3968 64.4224 87.3888 63.8144 88.0928C62.6304 89.5328 60.9504 90.8608 58.7744 92.0768C56.6304 93.2928 54.3264 93.9008 51.8624 93.9008C48.5024 93.9008 45.8944 92.9888 44.0384 91.1648C42.1824 89.3408 41.2544 86.8448 41.2544 83.6768C41.2544 81.4688 41.7184 79.4208 42.6464 77.5328C43.5744 75.6128 44.8544 74.0928 46.4864 72.9728C48.1504 71.8528 50.0224 71.2928 52.1024 71.2928C53.9584 71.2928 55.4464 71.8528 56.5664 72.9728C57.6864 74.0608 58.2464 75.5488 58.2464 77.4368C58.2464 79.6448 57.4464 81.5488 55.8464 83.1488C54.2784 84.7168 51.6064 85.9648 47.8304 86.8928C48.6304 88.3648 50.1504 89.1008 52.3904 89.1008C53.8304 89.1008 55.4624 88.6048 57.2864 87.6128C59.1424 86.5888 60.7424 85.2608 62.0864 83.6288C62.4704 83.1808 62.9024 82.9568 63.3824 82.9568ZM51.2864 75.9968C50.1024 75.9968 49.0944 76.6848 48.2624 78.0608C47.4624 79.4368 47.0624 81.1008 47.0624 83.0528V83.1488C48.9504 82.7008 50.4384 82.0288 51.5264 81.1328C52.6144 80.2368 53.1584 79.1968 53.1584 78.0128C53.1584 77.4048 52.9824 76.9248 52.6304 76.5728C52.3104 76.1888 51.8624 75.9968 51.2864 75.9968ZM66.3325 93.9008C64.9885 93.9008 63.9325 93.4048 63.1645 92.4128C62.3965 91.3888 61.9165 89.7568 61.7245 87.5168C61.3405 83.0368 61.1485 79.1168 61.1485 75.7568V74.0768C61.1805 73.0208 61.4685 72.2848 62.0125 71.8688C62.5565 71.4528 63.3725 71.2448 64.4605 71.2448C65.2925 71.2448 65.9005 71.4368 66.2845 71.8208C66.7005 72.1728 66.9085 72.7808 66.9085 73.6448C66.9085 77.3248 67.1325 82.1088 67.5805 87.9968C68.9565 85.6288 70.1405 83.4688 71.1325 81.5168C72.1565 79.5328 73.2605 76.9248 74.4445 73.6928C74.7965 72.7328 75.2605 72.0928 75.8365 71.7728C76.4125 71.4208 77.1325 71.2448 77.9965 71.2448C79.7565 71.2448 80.6365 71.8048 80.6365 72.9248C80.6365 73.3088 80.5085 73.8368 80.2525 74.5088C77.6605 80.5568 75.2125 85.4368 72.9085 89.1488C71.7885 90.9728 70.7165 92.2208 69.6925 92.8928C68.6685 93.5648 67.5485 93.9008 66.3325 93.9008ZM115.32 82.9568C115.736 82.9568 116.056 83.1488 116.28 83.5328C116.536 83.9168 116.664 84.4448 116.664 85.1168C116.664 86.3968 116.36 87.3888 115.752 88.0928C114.376 89.7888 112.872 91.1808 111.24 92.2688C109.608 93.3568 107.736 93.9008 105.624 93.9008C99.0959 93.9008 95.8319 89.3088 95.8319 80.1248C95.8319 78.7168 95.8799 77.2928 95.9759 75.8528H94.1039C93.1439 75.8528 92.4879 75.6768 92.1359 75.3248C91.8159 74.9728 91.6559 74.4128 91.6559 73.6448C91.6559 71.8528 92.3759 70.9568 93.8159 70.9568H96.5519C97.0959 67.4368 97.9279 64.2208 99.0479 61.3088C100.168 58.3968 101.512 56.0768 103.08 54.3488C104.68 52.6208 106.392 51.7568 108.216 51.7568C109.56 51.7568 110.616 52.3488 111.384 53.5328C112.152 54.7168 112.536 56.2048 112.536 57.9968C112.536 62.9568 110.456 67.2768 106.296 70.9568H111.672C112.184 70.9568 112.552 71.0688 112.776 71.2928C113 71.5168 113.112 71.9328 113.112 72.5408C113.112 74.7488 111.304 75.8528 107.688 75.8528H101.832C101.768 77.4528 101.736 78.7008 101.736 79.5968C101.736 82.9248 102.12 85.2608 102.888 86.6048C103.688 87.9488 104.936 88.6208 106.632 88.6208C108.008 88.6208 109.224 88.2048 110.28 87.3728C111.336 86.5408 112.584 85.2928 114.024 83.6288C114.408 83.1808 114.84 82.9568 115.32 82.9568ZM106.92 56.3648C106.44 56.3648 105.896 56.9728 105.288 58.1888C104.712 59.3728 104.152 61.0368 103.608 63.1808C103.096 65.2928 102.664 67.6448 102.312 70.2368C104.2 68.6048 105.608 66.7808 106.536 64.7648C107.496 62.7168 107.976 60.8608 107.976 59.1968C107.976 57.3088 107.624 56.3648 106.92 56.3648ZM118.66 93.9008C116.676 93.9008 115.092 93.1808 113.908 91.7408C112.724 90.3008 112.132 88.4128 112.132 86.0768C112.132 83.5168 112.724 81.1008 113.908 78.8288C115.092 76.5248 116.66 74.6848 118.612 73.3088C120.596 71.9008 122.692 71.1968 124.9 71.1968C125.604 71.1968 126.068 71.3408 126.292 71.6288C126.548 71.8848 126.756 72.3648 126.916 73.0688C127.588 72.9408 128.292 72.8768 129.028 72.8768C130.596 72.8768 131.38 73.4368 131.38 74.5568C131.38 75.2288 131.14 76.8288 130.66 79.3568C129.924 83.0368 129.556 85.5968 129.556 87.0368C129.556 87.5168 129.668 87.9008 129.892 88.1888C130.148 88.4768 130.468 88.6208 130.852 88.6208C131.46 88.6208 132.196 88.2368 133.06 87.4688C133.924 86.6688 135.092 85.3888 136.564 83.6288C136.948 83.1808 137.38 82.9568 137.86 82.9568C138.276 82.9568 138.596 83.1488 138.82 83.5328C139.076 83.9168 139.204 84.4448 139.204 85.1168C139.204 86.3968 138.9 87.3888 138.292 88.0928C136.98 89.7248 135.588 91.1008 134.116 92.2208C132.644 93.3408 131.22 93.9008 129.844 93.9008C128.788 93.9008 127.812 93.5488 126.916 92.8448C126.052 92.1088 125.396 91.1168 124.948 89.8688C123.284 92.5568 121.188 93.9008 118.66 93.9008ZM120.388 89.0528C121.092 89.0528 121.764 88.6368 122.404 87.8048C123.044 86.9728 123.508 85.8688 123.796 84.4928L125.572 75.6608C124.228 75.6928 122.98 76.2048 121.828 77.1968C120.708 78.1568 119.812 79.4368 119.14 81.0368C118.468 82.6368 118.132 84.3328 118.132 86.1248C118.132 87.1168 118.324 87.8528 118.708 88.3328C119.124 88.8128 119.684 89.0528 120.388 89.0528ZM153.494 82.9568C153.91 82.9568 154.23 83.1488 154.454 83.5328C154.71 83.9168 154.838 84.4448 154.838 85.1168C154.838 86.3968 154.534 87.3888 153.926 88.0928C152.55 89.7888 151.046 91.1808 149.414 92.2688C147.814 93.3568 145.99 93.9008 143.942 93.9008C141.126 93.9008 139.03 92.6208 137.654 90.0608C136.31 87.5008 135.638 84.1888 135.638 80.1248C135.638 76.2208 136.134 71.7728 137.126 66.7808C138.15 61.7888 139.638 57.5008 141.59 53.9168C143.574 50.3328 145.926 48.5408 148.646 48.5408C150.182 48.5408 151.382 49.2608 152.246 50.7008C153.142 52.1088 153.59 54.1408 153.59 56.7968C153.59 60.6048 152.534 65.0208 150.422 70.0448C148.31 75.0688 145.446 80.0448 141.83 84.9728C142.054 86.2848 142.422 87.2288 142.934 87.8048C143.446 88.3488 144.118 88.6208 144.95 88.6208C146.262 88.6208 147.414 88.2528 148.406 87.5168C149.398 86.7488 150.662 85.4528 152.198 83.6288C152.582 83.1808 153.014 82.9568 153.494 82.9568ZM147.59 53.2928C146.854 53.2928 146.022 54.6208 145.094 57.2768C144.166 59.9328 143.35 63.2288 142.646 67.1648C141.942 71.1008 141.558 74.8768 141.494 78.4928C143.766 74.7488 145.574 71.0048 146.918 67.2608C148.262 63.4848 148.934 60.0448 148.934 56.9408C148.934 54.5088 148.486 53.2928 147.59 53.2928ZM171.359 88.6688C172.671 88.9248 173.327 89.6448 173.327 90.8288C173.327 91.6288 172.959 92.3488 172.223 92.9888C171.519 93.5968 170.495 93.9008 169.151 93.9008C166.847 93.9008 164.959 93.1968 163.487 91.7888C162.047 90.3488 161.327 88.4768 161.327 86.1728C161.327 84.9248 161.967 84.0288 163.247 83.4848C164.655 82.8768 165.663 82.2368 166.271 81.5648C166.879 80.8608 167.183 80.0128 167.183 79.0208C167.183 78.4448 167.055 78.0128 166.799 77.7248C166.575 77.4368 166.287 77.2928 165.935 77.2928C165.071 77.2928 164.111 77.9168 163.055 79.1648C162.031 80.4128 161.071 82.0288 160.175 84.0128C159.279 85.9648 158.575 87.9808 158.063 90.0608C157.711 91.5648 157.295 92.5888 156.815 93.1328C156.367 93.6448 155.647 93.9008 154.655 93.9008C153.663 93.9008 152.927 93.5488 152.447 92.8448C151.999 92.1088 151.695 90.9888 151.535 89.4848C151.375 87.9808 151.295 85.7728 151.295 82.8608C151.295 77.9328 151.791 72.7968 152.783 67.4528C153.807 62.1088 155.295 57.6288 157.247 54.0128C159.231 50.3648 161.599 48.5408 164.351 48.5408C165.823 48.5408 167.007 49.1808 167.903 50.4608C168.831 51.7088 169.295 53.3408 169.295 55.3568C169.295 58.5888 168.351 61.9488 166.463 65.4368C164.575 68.8928 161.503 72.9408 157.247 77.5808C157.151 79.2448 157.103 80.9568 157.103 82.7168C158.639 78.7168 160.399 75.8208 162.383 74.0288C164.367 72.2048 166.223 71.2928 167.951 71.2928C169.551 71.2928 170.831 71.8368 171.791 72.9248C172.783 74.0128 173.279 75.3568 173.279 76.9568C173.279 78.7168 172.831 80.3328 171.935 81.8048C171.039 83.2768 169.503 84.5888 167.327 85.7408C167.519 86.7008 167.903 87.3728 168.479 87.7568C169.087 88.1088 170.047 88.4128 171.359 88.6688ZM163.343 53.2928C162.767 53.2928 162.127 54.1248 161.423 55.7888C160.719 57.4208 160.031 59.6448 159.359 62.4608C158.719 65.2448 158.191 68.2848 157.775 71.5808C159.759 69.2448 161.391 66.7008 162.671 63.9488C163.983 61.1968 164.639 58.7008 164.639 56.4608C164.639 55.4368 164.527 54.6528 164.303 54.1088C164.079 53.5648 163.759 53.2928 163.343 53.2928Z" fill="black"/>
</svg>
